<?xml version="1.0" encoding="UTF-8"?>
<svg width="30px" height="30px" viewBox="0 0 30 30" version="1.1" xmlns="http://www.w3.org/2000/svg" xmlns:xlink="http://www.w3.org/1999/xlink">
    <!-- Generator: Sketch 52.5 (67469) - http://www.bohemiancoding.com/sketch -->
    <title>blundstone</title>
    <desc>Created with Sketch.</desc>
    <g id="blundstone" stroke="none" stroke-width="1" fill="none" fill-rule="evenodd">
        <rect fill="#F7F3F0" x="0" y="0" width="30" height="30"></rect>
        <path d="M15.082,15.7233309 C18.416,12.1661994 18.047,6.01019208 18,5.37986406 L18,4.13295349 L19.755,5.62728254 C19.695,7.33957548 19.5,13.1872915 19.5,15.7272582 C19.5,19.9176631 25.5,19.9176631 25.5,15.7272582 L25.5,5.51240967 C25.565,5.21688205 25.886,4.07993524 27,3.63517108 L27,22.0031417 L3,22 C3.647,18.760978 5.819,18.1818065 9,18.1818065 C11.507,18.1818065 13.554,17.3541328 15.082,15.7233309 Z M21.746,5.90906469 L23.5,5.90906469 L23.5,15.7272582 C23.5,16.6324956 22.983,16.9545323 22.5,16.9545323 C22.017,16.9545323 21.5,16.6324956 21.5,15.7272582 C21.5,13.3443826 21.681,7.83048515 21.746,5.90906469 Z M3,24 C2.979,23.9272774 3,23 3,23.0001 L27,23.0001 L27,24.0727226 L3,24 Z M23.588,4.92724534 L21.712,4.92724534 C21.659,4.74659058 21.574,4.57771765 21.426,4.45106296 L17.655,1.23953187 C17.359,0.98818612 16.94,0.92927696 16.585,1.08833169 C16.229,1.24836825 16,1.59691412 16,1.9817873 L16,5.90906469 C16,5.99251933 16.011,6.07302852 16.03,6.14961043 C16.059,7.7568487 15.896,11.9551082 13.61,14.3939475 C12.46,15.6222035 10.952,16.2181678 9,16.2181678 C3.623,16.2181678 1.263,18.5146433 1.023,24.0776317 C1.016,24.0776317 1.009,24.0727226 1,24.0727226 C0.447,24.0727226 0,24.5115959 0,25.054542 L0,27.0181807 C0,27.5611268 0.447,28 1,28 C1.553,28 2,27.5611268 2,27.0181807 L2,26.0363613 L3,26.0363613 L3,27.0181807 C3,27.5611268 3.447,28 4,28 C4.553,28 5,27.5611268 5,27.0181807 L5,26.0363613 L6,26.0363613 L6,27.0181807 C6,27.5611268 6.447,28 7,28 C7.553,28 8,27.5611268 8,27.0181807 L8,26.0363613 L9,26.0363613 L9,27.0181807 C9,27.5611268 9.447,28 10,28 C10.553,28 11,27.5611268 11,27.0181807 L11,26.0363613 L12,26.0363613 L12,27.0181807 C12,27.5611268 12.447,28 13,28 C13.553,28 14,27.5611268 14,27.0181807 L14,26.0363613 L21,26.0363613 L21,27.0181807 C21,27.5611268 21.447,28 22,28 C22.553,28 23,27.5611268 23,27.0181807 L23,26.0363613 L24,26.0363613 L24,27.0181807 C24,27.5611268 24.447,28 25,28 C25.553,28 26,27.5611268 26,27.0181807 L26,26.0363613 L27,26.0363613 L27,27.0181807 C27,27.5611268 27.447,28 28,28 C28.553,28 29,27.5611268 29,27.0181807 L29,25.054542 L29,2.47269697 C29,1.92975087 28.553,1.49087763 28,1.49087763 C25.197,1.49087763 23.94,3.57920738 23.588,4.92724534 Z" id="Fill-1" fill="#000000"></path>
    </g>
</svg>