<?xml version="1.0" encoding="UTF-8"?>
<svg width="30px" height="30px" viewBox="0 0 30 30" version="1.1" xmlns="http://www.w3.org/2000/svg" xmlns:xlink="http://www.w3.org/1999/xlink">
    <!-- Generator: Sketch 52.5 (67469) - http://www.bohemiancoding.com/sketch -->
    <title>classic</title>
    <desc>Created with Sketch.</desc>
    <g id="classic" stroke="none" stroke-width="1" fill="none" fill-rule="evenodd">
        <rect fill="#F7F3F0" x="0" y="0" width="30" height="30"></rect>
        <path d="M28.5,27 L20.5,27 C20.224,27 20,27.224 20,27.5 C20,27.776 20.224,28 20.5,28 L28.5,28 C28.776,28 29,27.776 29,27.5 C29,27.224 28.776,27 28.5,27" id="Fill-3" fill="#000000"></path>
        <path d="M14.4639,27 L0.5359,27 C0.2389,27 -0.0001,27.224 -0.0001,27.5 C-0.0001,27.776 0.2389,28 0.5359,28 L14.4639,28 C14.7609,28 14.9999,27.776 14.9999,27.5 C14.9999,27.224 14.7609,27 14.4639,27" id="Fill-5" fill="#000000"></path>
        <path d="M2,24 C2.57,22.32976 5.272,21.4188 8.299,20.31536 C9.256,19.96592 10.249,19.59568 11.217,19.16616 L11.36,19.46984 C11.447,19.65288 11.625,19.76 11.81,19.76 C11.884,19.76 11.959,19.74232 12.03,19.70696 C12.278,19.58008 12.38,19.26808 12.259,19.01016 L12.127,18.73248 C12.489,18.5484 12.842,18.3508 13.187,18.13864 L13.323,18.42984 C13.41,18.61288 13.588,18.72 13.772,18.72 C13.847,18.72 13.922,18.70232 13.993,18.66696 C14.24,18.54008 14.343,18.22808 14.222,17.97016 L14.032,17.56872 C14.91,16.91664 15.69,16.14288 16.277,15.16632 C16.919,15.38368 17.412,16.0004 18.08,16.8896 C18.953,18.05232 20.039,19.5 22,19.5 C23.499,19.5 24.673,19.4064 25.592,19.26704 C25.458,19.43032 25.429,19.6612 25.53,19.864 C25.62,20.0304 25.79,20.124 25.97,20.124 C26.05,20.124 26.14,20.1032 26.21,20.0616 C26.45,19.91496 26.54,19.604 26.41,19.35336 C26.36,19.266 26.288,19.20672 26.208,19.15992 C26.503,19.10168 26.77,19.04032 27.002,18.9748 L27.002,24 L2,24 Z M27.374,16.60984 C27.363,16.61816 26.229,17.42 22,17.42 C21.062,17.42 20.499,16.73256 19.656,15.6104 C18.783,14.44768 17.697,13 15.736,13 C15.354,13 15.007,13.22568 14.839,13.5824 C14.435,14.43832 13.818,15.12264 13.086,15.70712 C12.939,15.59584 12.744,15.56568 12.57,15.65304 C12.353,15.76432 12.257,16.01912 12.318,16.2552 C11.973,16.47568 11.612,16.68264 11.234,16.874 C11.097,16.66288 10.834,16.57968 10.606,16.69304 C10.39,16.80328 10.295,17.05496 10.353,17.28896 C9.475,17.6748 8.554,18.018 7.637,18.35184 C4.128,19.63208 0,20.95496 0,24.96 C0,25.53512 0.447,26 1,26 L28.009,26.04154 C28.274,26.04154 28.528,25.93234 28.717,25.73682 C28.904,25.5413 29.009,25.27714 29.009,25.0005 L29,17.41896 C29,17.00712 28.79,16.61192 28.427,16.44552 C28.064,16.28016 27.667,16.33008 27.374,16.60984 Z" id="Fill-1" fill="#000000"></path>
        <path d="M10.3799,19.8398 C10.1399,19.6998 9.8399,19.7898 9.6999,20.0298 C9.5599,20.2698 9.6499,20.5688 9.8899,20.7098 C9.9699,20.7498 10.0499,20.7798 10.1299,20.7798 C10.3099,20.7798 10.4799,20.6898 10.5689,20.5298 C10.7099,20.2798 10.6199,19.9798 10.3799,19.8398" id="Fill-8" fill="#000000"></path>
        <path d="M12.1494,20.5098 C11.8794,20.4398 11.6094,20.6098 11.5494,20.8798 C11.4794,21.1398 11.6494,21.4098 11.9104,21.4798 C11.9504,21.4898 11.9904,21.4898 12.0304,21.4898 C12.2594,21.4898 12.4604,21.3398 12.5194,21.1098 C12.5804,20.8398 12.4204,20.5698 12.1494,20.5098" id="Fill-10" fill="#000000"></path>
        <path d="M17.3701,22.3496 C17.1701,22.5396 17.1491,22.8496 17.3401,23.0596 C17.4391,23.1696 17.5691,23.2196 17.7101,23.2196 C17.8301,23.2196 17.9501,23.1796 18.0401,23.0896 C18.2501,22.9106 18.2601,22.5896 18.0801,22.3896 C17.8901,22.1796 17.5801,22.1606 17.3701,22.3496" id="Fill-12" fill="#000000"></path>
        <path d="M16.2197,21.1299 C15.9597,21.0299 15.6697,21.1599 15.5697,21.4199 C15.4697,21.6699 15.5997,21.9599 15.8597,22.0599 C15.9197,22.0799 15.9797,22.0899 16.0397,22.0899 C16.2407,22.0899 16.4297,21.9699 16.5097,21.7699 C16.5997,21.5099 16.4697,21.2199 16.2197,21.1299" id="Fill-14" fill="#000000"></path>
        <path d="M14.0498,20.75 C13.7698,20.75 13.5498,20.97 13.5498,21.25 C13.5398,21.52 13.7698,21.75 14.0398,21.75 C14.3198,21.75 14.5398,21.53 14.5498,21.25 C14.5498,20.979 14.3298,20.75 14.0498,20.75" id="Fill-16" fill="#000000"></path>
        <path d="M23.8096,20.2598 L23.8196,20.2598 C23.6096,20.4398 23.5896,20.7598 23.7696,20.9598 C23.8706,21.0698 24.0096,21.1298 24.1496,21.1298 C24.2696,21.1298 24.3896,21.0898 24.4796,20.9998 C24.6896,20.8098 24.7006,20.4998 24.5196,20.2898 C24.3396,20.0898 24.0196,20.0698 23.8096,20.2598" id="Fill-18" fill="#000000"></path>
        <path d="M22.9902,21.9102 C22.7502,21.7802 22.4502,21.8802 22.3192,22.1202 C22.1892,22.3702 22.2802,22.6702 22.5302,22.8002 C22.5992,22.8402 22.6792,22.8492 22.7602,22.8492 C22.9392,22.8492 23.1092,22.7602 23.2002,22.5902 C23.3302,22.3402 23.2402,22.0402 22.9902,21.9102" id="Fill-20" fill="#000000"></path>
    </g>
</svg>