<svg width="46px" height="30px" viewBox="0 0 46 30" version="1.1" xmlns="http://www.w3.org/2000/svg" xmlns:xlink="http://www.w3.org/1999/xlink">
    <g id="hoodie" stroke="none" stroke-width="1" fill="none" fill-rule="evenodd">
        <rect fill="#F7F3F0" x="0" y="0" width="46" height="30"></rect>
        <path d="M42.6057,13.7139 L40.1867,12.8149 C39.9907,12.7399 39.7767,12.7319 39.5757,12.7869 C39.4457,12.8209 39.3087,12.8379 39.1837,12.8299 L31.2097,11.0249 C30.9117,10.9559 30.6017,11.0289 30.3657,11.2189 C30.1277,11.4079 29.9897,11.6959 29.9897,11.9999 L29.9897,20.9989 C29.9897,21.8579 29.7057,22.6869 29.1677,23.3969 C29.0007,23.6189 28.9417,23.8989 28.9897,24.1649 L28.9897,26.9999 L16.9897,26.9999 L16.9897,24.2159 C17.0517,23.9339 16.9897,23.6339 16.8107,23.3969 C16.2737,22.6869 15.9897,21.8579 15.9897,20.9989 L15.9897,11.9999 C15.9897,11.6959 15.8507,11.4079 15.6137,11.2189 C15.3767,11.0289 15.0667,10.9569 14.7687,11.0249 L6.7977,12.8289 C6.7127,12.8379 6.5977,12.8219 6.4787,12.7979 C6.2967,12.7609 6.1067,12.7769 5.9297,12.8399 L3.5787,13.7139 L2.9867,12.1199 L5.1047,11.3329 C5.3227,11.2519 5.5047,11.0979 5.6217,10.8969 C5.7857,10.6139 6.0437,10.4059 6.3517,10.3099 C6.3997,10.2949 6.4467,10.2759 6.4927,10.2539 L16.8177,5.2029 L19.9897,6.6659 L19.9897,11.4999 C19.9897,11.7769 20.2127,11.9999 20.4897,11.9999 C20.7657,11.9999 20.9897,11.7769 20.9897,11.4999 L20.9897,7.1279 L22.7797,7.9539 C22.7837,7.9559 22.7887,7.9549 22.7927,7.9569 C22.8547,7.9849 22.9207,7.9999 22.9897,7.9999 C23.0577,7.9999 23.1247,7.9849 23.1867,7.9569 C23.1907,7.9549 23.1957,7.9559 23.1997,7.9539 L24.9897,7.1279 L24.9897,9.4999 C24.9897,9.7759 25.2127,9.9999 25.4897,9.9999 C25.7657,9.9999 25.9897,9.7759 25.9897,9.4999 L25.9897,6.6659 L29.1607,5.2029 L39.4867,10.2539 C39.5317,10.2759 39.5787,10.2949 39.6267,10.3099 C39.9817,10.4209 40.1977,10.6599 40.3157,10.8409 C40.4327,11.0199 40.6037,11.1559 40.8037,11.2309 L43.1977,12.1199 L42.6057,13.7139 Z M20.4897,4.9999 C20.2127,4.9999 19.9897,5.2239 19.9897,5.4999 L19.9897,5.5649 L17.8957,4.5989 L20.2927,2.9999 L20.5737,2.9999 L22.0347,6.5089 L20.9897,6.0269 L20.9897,5.4999 C20.9897,5.2239 20.7657,4.9999 20.4897,4.9999 Z M22.9897,6.1989 L21.6567,2.9999 L24.3227,2.9999 L22.9897,6.1989 Z M25.4897,4.9999 C25.2127,4.9999 24.9897,5.2239 24.9897,5.4999 L24.9897,6.0269 L23.9447,6.5089 L25.4057,2.9999 L25.6867,2.9999 L28.0837,4.5989 L25.9897,5.5649 L25.9897,5.4999 C25.9897,5.2239 25.7657,4.9999 25.4897,4.9999 Z M44.8327,10.5939 L41.7797,9.4589 C41.3907,8.9839 40.8777,8.6239 40.3037,8.4269 L29.5217,3.1529 L26.5437,1.1679 C26.3797,1.0589 26.1867,0.9999 25.9897,0.9999 L19.9897,0.9999 C19.7927,0.9999 19.5987,1.0589 19.4347,1.1679 L16.4577,3.1529 L5.6757,8.4269 C5.0457,8.6419 4.5007,9.0399 4.1037,9.5709 L1.3517,10.5939 C0.8347,10.7859 0.5707,11.3619 0.7627,11.8799 L2.0517,15.3489 C2.1447,15.5969 2.3327,15.7989 2.5737,15.9089 C2.8147,16.0209 3.0907,16.0299 3.3377,15.9379 L6.3797,14.8069 C6.6027,14.8329 6.8187,14.8359 7.0327,14.8179 C7.0767,14.8149 7.1207,14.8079 7.1637,14.7979 L13.9897,13.2519 L13.9897,20.9989 C13.9897,22.1689 14.3347,23.2969 14.9897,24.2849 L14.9897,27.9999 C14.9897,28.5529 15.4367,28.9999 15.9897,28.9999 L29.9897,28.9999 C30.5427,28.9999 30.9897,28.5529 30.9897,27.9999 L30.9897,24.2849 C31.6447,23.2969 31.9897,22.1689 31.9897,20.9989 L31.9897,13.2519 L38.8157,14.7979 C38.8577,14.8079 38.9017,14.8149 38.9447,14.8179 C39.2207,14.8439 39.4937,14.8339 39.7607,14.7899 L42.8457,15.9379 C43.0937,16.0289 43.3697,16.0209 43.6107,15.9089 C43.8517,15.7989 44.0397,15.5969 44.1317,15.3489 L45.4207,11.8799 C45.6137,11.3619 45.3497,10.7859 44.8327,10.5939 Z" id="Fill-1" fill="#000000"></path>
        <path d="M18.5881,21.0769231 L19.4061,16.9230769 L26.5721,16.9230769 L27.3911,21.0769231 L18.5881,21.0769231 Z M18.9891,16 C18.7481,16 18.5411,16.1596923 18.4971,16.3784615 L17.4971,21.4553846 C17.4711,21.5910769 17.5111,21.7295385 17.6061,21.8338462 C17.7001,21.94 17.8411,22 17.9891,22 L27.9891,22 C28.1381,22 28.2781,21.94 28.3731,21.8338462 C28.4681,21.7295385 28.5081,21.5910769 28.4821,21.4553846 L27.4821,16.3784615 C27.4381,16.1596923 27.2311,16 26.9891,16 L18.9891,16 Z" id="Fill-4" fill="#000000"></path>
    </g>
</svg>