<?xml version="1.0" encoding="UTF-8"?>
<svg width="46px" height="36px" viewBox="0 0 46 36" version="1.1" xmlns="http://www.w3.org/2000/svg" xmlns:xlink="http://www.w3.org/1999/xlink">
    <!-- Generator: Sketch 52.5 (67469) - http://www.bohemiancoding.com/sketch -->
    <title>jacket_classic_warm</title>
    <desc>Created with Sketch.</desc>
    <g id="jacket_classic_warm" stroke="none" stroke-width="1" fill="none" fill-rule="evenodd">
        <rect fill="#F7F3F0" x="0" y="0" width="46" height="36"></rect>
        <path d="M27.9998,14.5 C27.9998,14.224 27.7758,14 27.4998,14 C27.2238,14 26.9998,14.224 26.9998,14.5 L26.9998,18.5 C26.9998,18.776 27.2238,19 27.4998,19 L30.4998,19 C30.7758,19 30.9998,18.776 30.9998,18.5 L30.9998,14.5 C30.9998,14.224 30.7758,14 30.4998,14 C30.2238,14 29.9998,14.224 29.9998,14.5 L29.9998,18 L27.9998,18 L27.9998,14.5 Z" id="Fill-4" fill="#000000"></path>
        <path d="M15.4998,19 L18.4998,19 C18.7758,19 18.9998,18.776 18.9998,18.5 L18.9998,14.5 C18.9998,14.224 18.7758,14 18.4998,14 C18.2238,14 17.9998,14.224 17.9998,14.5 L17.9998,18 L15.9998,18 L15.9998,14.5 C15.9998,14.224 15.7758,14 15.4998,14 C15.2238,14 14.9998,14.224 14.9998,14.5 L14.9998,18.5 C14.9998,18.776 15.2238,19 15.4998,19" id="Fill-6" fill="#000000"></path>
        <path d="M30.4998,23 C30.2238,23 29.9998,23.224 29.9998,23.5 L29.9998,27 L27.9998,27 L27.9998,23.5 C27.9998,23.224 27.7758,23 27.4998,23 C27.2238,23 26.9998,23.224 26.9998,23.5 L26.9998,27.5 C26.9998,27.776 27.2238,28 27.4998,28 L30.4998,28 C30.7758,28 30.9998,27.776 30.9998,27.5 L30.9998,23.5 C30.9998,23.224 30.7758,23 30.4998,23" id="Fill-8" fill="#000000"></path>
        <path d="M15.4998,28 L18.4998,28 C18.7758,28 18.9998,27.776 18.9998,27.5 L18.9998,23.5 C18.9998,23.224 18.7758,23 18.4998,23 C18.2238,23 17.9998,23.224 17.9998,23.5 L17.9998,27 L15.9998,27 L15.9998,23.5 C15.9998,23.224 15.7758,23 15.4998,23 C15.2238,23 14.9998,23.224 14.9998,23.5 L14.9998,27.5 C14.9998,27.776 15.2238,28 15.4998,28" id="Fill-10" fill="#000000"></path>
        <path d="M43.2372,12.9268 L33.0912,12.0038 C32.8142,11.9798 32.5332,12.0728 32.3252,12.2618 C32.1182,12.4508 32.0002,12.7188 32.0002,12.9998 L32.0002,32.9998 L26.0002,32.9998 L26.0002,8.6888 L27.0002,7.5518 L27.0002,9.4998 C27.0002,9.7768 27.2232,9.9998 27.5002,9.9998 C27.7762,9.9998 28.0002,9.7768 28.0002,9.4998 L28.0002,6.4148 L28.9362,5.3508 L29.1682,5.5818 C29.3192,5.8088 29.5612,5.9718 29.8472,6.0158 C29.8572,6.0178 29.8672,6.0188 29.8772,6.0198 L43.8042,10.6558 L43.2372,12.9268 Z M13.6742,12.2618 C13.4662,12.0728 13.1862,11.9778 12.9092,12.0038 L2.7622,12.9268 L2.1952,10.6558 L16.2182,5.9888 C16.4402,5.9388 16.6322,5.8138 16.7692,5.6448 L16.8532,5.5608 L18.0002,6.7068 L18.0002,11.4998 C18.0002,11.7768 18.2232,11.9998 18.5002,11.9998 C18.7762,11.9998 19.0002,11.7768 19.0002,11.4998 L19.0002,7.7068 L20.0002,8.7068 L20.0002,32.9998 L14.0002,32.9998 L14.0002,12.9998 C14.0002,12.7188 13.8822,12.4508 13.6742,12.2618 Z M19.1542,3.2598 L19.7612,7.0548 L19.0002,6.2928 L19.0002,5.4998 C19.0002,5.2238 18.7762,4.9998 18.5002,4.9998 C18.2852,4.9998 18.1052,5.1368 18.0352,5.3278 L17.5602,4.8538 L19.1542,3.2598 Z M20.9842,8.4228 L20.9942,8.4208 L20.1272,2.9998 L25.8732,2.9998 L25.0062,8.4208 L25.0132,8.4218 C25.0092,8.4478 25.0002,8.4738 25.0002,8.4998 L25.0002,32.9998 L21.0002,32.9998 L21.0002,8.4998 C21.0002,8.4728 20.9892,8.4478 20.9842,8.4228 Z M28.2282,4.6428 L27.8102,5.1168 C27.7242,5.0478 27.6192,4.9998 27.5002,4.9998 C27.2232,4.9998 27.0002,5.2238 27.0002,5.4998 L27.0002,6.0388 L26.2672,6.8708 L26.8452,3.2598 L28.2282,4.6428 Z M45.3152,9.0508 L30.5502,4.1358 L27.7072,1.2928 C27.5192,1.1058 27.2652,0.9998 27.0002,0.9998 L19.0002,0.9998 C18.7342,0.9998 18.4802,1.1058 18.2932,1.2928 L15.4492,4.1358 L0.6842,9.0508 C0.1882,9.2158 -0.0968,9.7358 0.0302,10.2418 L1.0302,14.2418 C1.1492,14.7218 1.5932,15.0468 2.0912,14.9958 L12.0002,14.0948 L12.0002,33.9998 C12.0002,34.5528 12.4472,34.9998 13.0002,34.9998 L33.0002,34.9998 C33.5522,34.9998 34.0002,34.5528 34.0002,33.9998 L34.0002,14.0948 L43.9092,14.9958 C44.4062,15.0468 44.8502,14.7218 44.9692,14.2418 L45.9692,10.2418 C46.0962,9.7358 45.8112,9.2158 45.3152,9.0508 Z" id="Fill-1" fill="#000000"></path>
    </g>
</svg>