<?xml version="1.0" encoding="UTF-8"?>
<svg width="46px" height="30px" viewBox="0 0 46 30" version="1.1" xmlns="http://www.w3.org/2000/svg" xmlns:xlink="http://www.w3.org/1999/xlink">
    <!-- Generator: Sketch 52.5 (67469) - http://www.bohemiancoding.com/sketch -->
    <title>jacket_warm</title>
    <desc>Created with Sketch.</desc>
    <g id="jacket_warm" stroke="none" stroke-width="1" fill="none" fill-rule="evenodd">
        <rect fill="#F7F3F0" x="0" y="0" width="46" height="30"></rect>
        <path d="M43.2372,12.9268 L42.1822,12.8308 L42.8002,10.3618 L43.8002,10.6738 L43.2372,12.9268 Z M33.0912,12.0038 C32.8112,11.9788 32.5332,12.0728 32.3252,12.2618 C32.1182,12.4508 32.0002,12.7188 32.0002,12.9998 L32.0002,22.6958 L29.9282,19.2428 C29.7862,19.0068 29.4772,18.9298 29.2432,19.0718 C29.0062,19.2128 28.9282,19.5208 29.0712,19.7568 L32.0002,24.6378 L32.0002,25.9998 L26.0002,25.9998 L26.0002,10.9998 L29.0002,10.9998 C29.5522,10.9998 30.0002,10.5528 30.0002,9.9998 L30.0002,6.3658 L41.8432,10.0628 L41.1742,12.7398 L33.0912,12.0038 Z M21.0002,25.9998 L21.0002,9.9998 L21.0002,8.9998 L21.0002,3.9998 L25.0002,3.9998 L25.0002,8.9998 L25.0002,9.9998 L25.0002,25.9998 L21.0002,25.9998 Z M14.0002,25.9998 L14.0002,24.6378 L16.9282,19.7568 C17.0712,19.5208 16.9942,19.2128 16.7572,19.0718 C16.5232,18.9298 16.2142,19.0068 16.0712,19.2428 L14.0002,22.6958 L14.0002,12.9998 C14.0002,12.7188 13.8822,12.4508 13.6752,12.2618 C13.4662,12.0728 13.1882,11.9768 12.9092,12.0038 L4.8252,12.7398 L4.1562,10.0638 L16.0002,6.3668 L16.0002,9.9998 C16.0002,10.5528 16.4472,10.9998 17.0002,10.9998 L20.0002,10.9998 L20.0002,25.9998 L14.0002,25.9998 Z M2.1992,10.6738 L3.2002,10.3618 L3.8172,12.8308 L2.7622,12.9268 L2.1992,10.6738 Z M19.0002,4.8678 L19.0002,8.9998 L18.0002,8.9998 L18.0002,5.5348 L19.0002,4.8678 Z M27.0002,4.8678 L28.0002,5.5348 L28.0002,8.9998 L27.0002,8.9998 L27.0002,4.8678 Z M44.9692,14.2418 L45.9692,10.2418 C46.0982,9.7288 45.8032,9.2028 45.2982,9.0448 L29.4552,4.1018 L26.5542,2.1678 C26.4742,2.1138 26.3872,2.0748 26.2982,2.0468 C26.2732,2.0388 26.2482,2.0388 26.2232,2.0328 C26.1572,2.0178 26.0902,2.0048 26.0212,2.0028 C26.0142,2.0028 26.0082,1.9998 26.0002,1.9998 L20.0002,1.9998 C19.9922,1.9998 19.9852,2.0028 19.9782,2.0028 C19.9112,2.0048 19.8452,2.0178 19.7792,2.0328 C19.7542,2.0388 19.7262,2.0388 19.7022,2.0468 C19.6122,2.0748 19.5252,2.1138 19.4452,2.1678 L16.5452,4.1018 L0.7022,9.0448 C0.1962,9.2028 -0.0988,9.7288 0.0302,10.2418 L1.0302,14.2418 C1.1492,14.7218 1.5932,15.0468 2.0912,14.9958 L12.0002,14.0948 L12.0002,26.9998 C12.0002,27.5528 12.4472,27.9998 13.0002,27.9998 L33.0002,27.9998 C33.5522,27.9998 34.0002,27.5528 34.0002,26.9998 L34.0002,14.0948 L43.9092,14.9958 C44.4062,15.0468 44.8502,14.7218 44.9692,14.2418 Z" id="Fill-5" fill="#000000"></path>
        <path d="M30.4999,12 C30.2239,12 29.9999,12.224 29.9999,12.5 L29.9999,16 L27.9999,16 L27.9999,12.5 C27.9999,12.224 27.7759,12 27.4999,12 C27.2239,12 26.9999,12.224 26.9999,12.5 L26.9999,16.5 C26.9999,16.776 27.2239,17 27.4999,17 L30.4999,17 C30.7759,17 30.9999,16.776 30.9999,16.5 L30.9999,12.5 C30.9999,12.224 30.7759,12 30.4999,12" id="Fill-1" fill="#000000"></path>
        <path d="M18.4999,12 C18.2239,12 17.9999,12.224 17.9999,12.5 L17.9999,16 L15.9999,16 L15.9999,12.5 C15.9999,12.224 15.7759,12 15.4999,12 C15.2239,12 14.9999,12.224 14.9999,12.5 L14.9999,16.5 C14.9999,16.776 15.2239,17 15.4999,17 L18.4999,17 C18.7759,17 18.9999,16.776 18.9999,16.5 L18.9999,12.5 C18.9999,12.224 18.7759,12 18.4999,12" id="Fill-3" fill="#000000"></path>
    </g>
</svg>