<?xml version="1.0" encoding="UTF-8"?>
<svg width="46px" height="30px" viewBox="0 0 46 30" version="1.1" xmlns="http://www.w3.org/2000/svg" xmlns:xlink="http://www.w3.org/1999/xlink">
    <!-- Generator: Sketch 52.5 (67469) - http://www.bohemiancoding.com/sketch -->
    <title>Jacket_ok</title>
    <desc>Created with Sketch.</desc>
    <g id="Jacket_ok" stroke="none" stroke-width="1" fill="none" fill-rule="evenodd">
        <rect fill="#F7F3F0" x="0" y="0" width="46" height="30"></rect>
        <path d="M14.2762,20.5605 L17.1042,17.7325 L17.8112,18.4395 L14.9832,21.2675 L14.2762,20.5605 Z M12.8462,11.0195 L5.4102,12.5175 L4.5312,9.8795 L17.3052,4.9775 C17.4512,4.9375 17.5832,4.8655 17.6922,4.7695 L17.8112,4.6905 L20.0442,7.6665 L20.0442,23.4995 L14.9132,23.4995 C14.8932,23.4665 14.8882,23.4275 14.8652,23.3965 C14.5082,22.9245 14.2752,22.3985 14.1502,21.8485 L14.6302,22.3285 C14.7272,22.4255 14.8552,22.4745 14.9832,22.4745 C15.1112,22.4745 15.2392,22.4255 15.3372,22.3285 L18.8722,18.7925 C19.0672,18.5975 19.0672,18.2815 18.8722,18.0855 L17.4582,16.6715 C17.2622,16.4765 16.9462,16.4765 16.7512,16.6715 L14.0442,19.3785 L14.0442,11.9995 C14.0442,11.7005 13.9092,11.4155 13.6772,11.2265 C13.4442,11.0375 13.1382,10.9595 12.8462,11.0195 Z M3.8592,12.8305 C3.2452,12.8585 2.6892,12.4605 2.5392,11.8555 C2.3732,11.1925 2.7542,10.5135 3.4652,10.2895 L3.5962,10.2395 L4.4222,12.7165 L3.8592,12.8305 Z M20.0442,3.2025 L20.0442,5.9995 L18.6452,4.1345 L20.0442,3.2025 Z M15.0442,26.9995 L15.0442,24.4995 L20.0442,24.4995 L20.0442,24.9995 L20.0442,26.9995 L15.0442,26.9995 Z M25.0442,2.9995 L25.0442,23.9995 L25.0442,24.9995 L25.0442,26.9995 L21.0442,26.9995 L21.0442,24.9995 L21.0442,23.9995 L21.0442,2.9995 L25.0442,2.9995 Z M27.8982,4.4385 L26.0442,6.2925 L26.0442,3.2025 L27.8982,4.4385 Z M31.8112,20.5605 L31.1042,21.2675 L28.2762,18.4395 L28.9832,17.7325 L31.8112,20.5605 Z M41.7562,9.9565 L40.4942,12.4805 L33.2412,11.0195 C32.9462,10.9615 32.6422,11.0375 32.4102,11.2265 C32.1782,11.4155 32.0442,11.7005 32.0442,11.9995 L32.0442,19.3785 L29.3372,16.6715 C29.1412,16.4765 28.8252,16.4765 28.6302,16.6715 L27.2152,18.0855 C27.0202,18.2815 27.0202,18.5975 27.2152,18.7925 L30.7512,22.3285 C30.8482,22.4255 30.9762,22.4745 31.1042,22.4745 C31.2322,22.4745 31.3602,22.4255 31.4582,22.3285 L31.9372,21.8485 C31.8122,22.3985 31.5792,22.9245 31.2222,23.3965 C31.1992,23.4275 31.1942,23.4665 31.1742,23.4995 L26.0442,23.4995 L26.0442,7.7065 L28.7762,4.9745 C28.7922,4.9795 28.8052,4.9885 28.8222,4.9925 L41.7562,9.9565 Z M43.5492,11.8555 C43.3982,12.4605 42.8382,12.8595 42.2282,12.8305 L41.5102,12.6855 L42.6942,10.3165 C43.3382,10.5265 43.7132,11.1975 43.5492,11.8555 Z M26.0442,24.4995 L31.0442,24.4995 L31.0442,26.9995 L26.0442,26.9995 L26.0442,24.9995 L26.0442,24.4995 Z M33.0442,27.9995 L33.0442,24.2855 C33.6992,23.2965 34.0442,22.1685 34.0442,20.9985 L34.0442,13.2215 L41.8932,14.8025 C41.9282,14.8095 41.9632,14.8145 42.0002,14.8185 C43.6222,14.9545 45.0942,13.9255 45.4902,12.3395 C45.9082,10.6625 44.9532,8.9435 43.3112,8.4115 L29.5292,3.1225 L26.5982,1.1675 C26.4342,1.0585 26.2412,0.9995 26.0442,0.9995 L20.0442,0.9995 C19.8462,0.9995 19.6532,1.0585 19.4892,1.1675 L16.5582,3.1225 L2.8082,8.4015 C1.1472,8.9205 0.1762,10.6505 0.5982,12.3395 C0.9942,13.9245 2.4722,14.9595 4.0882,14.8185 C4.1242,14.8145 4.1592,14.8095 4.1942,14.8025 L12.0442,13.2215 L12.0442,20.9985 C12.0442,22.1685 12.3882,23.2965 13.0442,24.2855 L13.0442,27.9995 C13.0442,28.5525 13.4912,28.9995 14.0442,28.9995 L32.0442,28.9995 C32.5962,28.9995 33.0442,28.5525 33.0442,27.9995 Z" id="Fill-1" fill="#000000"></path>
    </g>
</svg>