<?xml version="1.0" encoding="UTF-8"?>
<svg width="46px" height="36px" viewBox="0 0 46 36" version="1.1" xmlns="http://www.w3.org/2000/svg" xmlns:xlink="http://www.w3.org/1999/xlink">
    <!-- Generator: Sketch 52.5 (67469) - http://www.bohemiancoding.com/sketch -->
    <title>jacket_classic</title>
    <desc>Created with Sketch.</desc>
    <g id="jacket_classic" stroke="none" stroke-width="1" fill="none" fill-rule="evenodd">
        <rect fill="#F7F3F0" x="0" y="0" width="46" height="36"></rect>
        <path d="M43.2372,11.9268 L33.0912,11.0038 C32.8142,10.9788 32.5332,11.0728 32.3252,11.2618 C32.1182,11.4508 32.0002,11.7188 32.0002,11.9998 L32.0002,21.6958 L29.9282,18.2428 C29.7862,18.0068 29.4772,17.9298 29.2432,18.0718 C29.0062,18.2128 28.9282,18.5208 29.0712,18.7568 L32.0002,23.6378 L32.0002,32.9998 L26.0002,32.9998 L26.0002,18.1378 L28.9282,13.2568 C29.0332,13.0828 29.0212,12.8628 28.9002,12.6998 L26.8752,9.9998 L28.5002,9.9998 C28.7762,9.9998 29.0002,9.7768 29.0002,9.4998 L29.0002,5.0538 L43.8002,9.6738 L43.2372,11.9268 Z M14.0002,23.6378 L16.9282,18.7568 C17.0712,18.5208 16.9942,18.2128 16.7572,18.0718 C16.5232,17.9298 16.2152,18.0068 16.0712,18.2428 L14.0002,21.6958 L14.0002,11.9998 C14.0002,11.7188 13.8822,11.4508 13.6752,11.2618 C13.4662,11.0728 13.1872,10.9768 12.9092,11.0038 L2.7622,11.9268 L2.1992,9.6738 L17.0002,5.0548 L17.0002,9.4998 C17.0002,9.7768 17.2232,9.9998 17.5002,9.9998 L19.1252,9.9998 L17.0992,12.6998 C16.9782,12.8628 16.9662,13.0828 17.0712,13.2568 L20.0002,18.1378 L20.0002,32.9998 L14.0002,32.9998 L14.0002,23.6378 Z M28.0002,4.7678 L28.0002,8.9998 L26.0002,8.9998 L26.0002,3.4348 L28.0002,4.7678 Z M26.0002,15.9998 L26.0002,10.4998 L27.8982,13.0308 L26.0002,16.1958 L26.0002,15.9998 Z M20.0002,15.4998 L20.0002,16.1958 L18.1012,13.0308 L20.0002,10.4998 L20.0002,15.4998 Z M18.0002,4.7678 L20.0002,3.4348 L20.0002,8.9998 L18.0002,8.9998 L18.0002,4.7678 Z M25.0002,17.9998 L25.0002,32.9998 L21.0002,32.9998 L21.0002,17.9998 L21.0002,15.4998 L21.0002,2.9998 L25.0002,2.9998 L25.0002,15.9998 L25.0002,17.9998 Z M45.2982,8.0448 L29.4552,3.1018 L26.5542,1.1678 C26.3902,1.0588 26.1972,0.9998 26.0002,0.9998 L20.0002,0.9998 C19.8022,0.9998 19.6092,1.0588 19.4452,1.1678 L16.5452,3.1018 L0.7022,8.0448 C0.1962,8.2028 -0.0988,8.7288 0.0302,9.2418 L1.0302,13.2418 C1.1492,13.7218 1.5932,14.0468 2.0912,13.9958 L12.0002,13.0948 L12.0002,33.9998 C12.0002,34.5528 12.4472,34.9998 13.0002,34.9998 L33.0002,34.9998 C33.5522,34.9998 34.0002,34.5528 34.0002,33.9998 L34.0002,13.0948 L43.9092,13.9958 C44.4062,14.0468 44.8502,13.7218 44.9692,13.2418 L45.9692,9.2418 C46.0982,8.7288 45.8032,8.2028 45.2982,8.0448 Z" id="Fill-1" fill="#000000"></path>
    </g>
</svg>