<svg width="46px" height="30px" viewBox="0 0 46 30" version="1.1" xmlns="http://www.w3.org/2000/svg" xmlns:xlink="http://www.w3.org/1999/xlink">
    <g id="longsleave_print" stroke="none" stroke-width="1" fill="none" fill-rule="evenodd">
        <rect fill="#F7F3F0" x="0" y="0" width="46" height="30"></rect>
        <g id="Group" transform="translate(23.000000, 12.000000) rotate(-315.000000) translate(-23.000000, -12.000000) translate(19.000000, 8.000000)" fill="#000000" fill-rule="nonzero">
            <rect id="Rectangle" x="0" y="3" width="8" height="2" rx="1"></rect>
            <rect id="Rectangle" transform="translate(4.000000, 4.000000) rotate(-270.000000) translate(-4.000000, -4.000000) " x="0" y="3" width="8" height="2" rx="1"></rect>
        </g>
        <path d="M29,24.6572 C28.471,25.2692 26.65,27.0002 23,27.0002 C19.35,27.0002 17.531,25.2722 17,24.6572 L17,7.6862 C17,7.5212 16.952,7.3642 16.877,7.2212 L19.521,5.8192 C20.348,6.8362 21.591,7.5002 23,7.5002 C24.407,7.5002 25.649,6.8382 26.476,5.8232 L29.13,7.2652 C29.051,7.4102 29,7.5692 29,7.7382 L29,24.6572 Z M26.346,4.0002 C25.913,5.4422 24.581,6.5002 23,6.5002 C21.419,6.5002 20.087,5.4422 19.654,4.0002 L26.346,4.0002 Z M16.585,2.0942 L0.649,8.0632 C0.384,8.1632 0.173,8.3702 0.069,8.6352 C-0.034,8.8982 -0.021,9.1932 0.105,9.4472 L1.105,11.4472 C1.313,11.8622 1.774,12.0812 2.23,11.9722 L15,8.9512 L15,25.0002 C15,25.1972 15.059,25.3902 15.168,25.5542 C15.262,25.6952 17.527,29.0002 23,29.0002 C28.473,29.0002 30.738,25.6952 30.832,25.5542 C30.941,25.3902 31,25.1972 31,25.0002 L31,8.9982 L43.773,11.9732 C44.221,12.0782 44.688,11.8602 44.895,11.4472 L45.895,9.4472 C46.021,9.1932 46.034,8.8982 45.931,8.6352 C45.827,8.3702 45.616,8.1632 45.351,8.0632 L29.454,2.1092 C29.318,2.0392 29.163,2.0002 29,2.0002 L17,2.0002 C16.853,2.0002 16.712,2.0342 16.585,2.0942 Z" id="Fill-1" fill="#000000"></path>
    </g>
</svg>