<svg width="46px" height="30px" viewBox="0 0 46 30" version="1.1" xmlns="http://www.w3.org/2000/svg" xmlns:xlink="http://www.w3.org/1999/xlink">
    <g id="longsleave_casual" stroke="none" stroke-width="1" fill="none" fill-rule="evenodd">
        <rect fill="#F7F3F0" x="0" y="0" width="46" height="30"></rect>
        <path d="M43.2489,10.8799 L41.2439,10.5879 L41.8729,8.0719 L43.8009,8.6739 L43.2489,10.8799 Z M30.1449,8.9719 C29.8509,8.9319 29.5639,9.0149 29.3459,9.2049 C29.1259,9.3949 28.9999,9.6709 28.9999,9.9609 L28.9999,21.7939 L28.2819,23.9999 L17.7229,23.9999 L16.9999,21.7549 L16.9999,9.9209 C16.9999,9.6299 16.8729,9.3539 16.6529,9.1639 C16.4329,8.9739 16.1409,8.8909 15.8529,8.9319 L5.2119,10.5119 L4.6889,7.8969 L17.1749,3.9999 L18.6209,3.9999 C18.7839,4.7159 19.1259,5.3579 19.5869,5.8989 C19.6059,5.9349 19.6209,5.9729 19.6499,6.0039 L22.3259,8.9229 L21.6389,9.6599 C21.4509,9.8619 21.4619,10.1789 21.6639,10.3669 C21.7609,10.4569 21.8829,10.5009 22.0049,10.5009 C22.1389,10.5009 22.2719,10.4469 22.3709,10.3419 L23.0039,9.6619 L23.6239,10.3389 C23.7229,10.4459 23.8569,10.5009 23.9919,10.5009 C24.1129,10.5009 24.2339,10.4579 24.3299,10.3689 C24.5329,10.1829 24.5469,9.8659 24.3599,9.6629 L23.6869,8.9289 L26.4089,6.0069 C26.4749,5.9369 26.5069,5.8519 26.5239,5.7639 C26.9279,5.2509 27.2279,4.6569 27.3789,3.9999 L28.8129,3.9999 C28.8219,4.0019 28.8319,4.0029 28.8409,4.0049 L40.9159,7.7739 L40.2489,10.4429 L30.1449,8.9719 Z M2.1989,8.6739 L3.7289,8.1959 L4.2219,10.6589 L2.7499,10.8779 L2.1989,8.6739 Z M23.7189,7.4279 L23.0089,8.1899 L22.3139,7.4309 C22.5389,7.4659 22.7649,7.4999 22.9999,7.4999 C23.2459,7.4999 23.4829,7.4659 23.7189,7.4279 Z M22.9999,6.4999 C21.4199,6.4999 20.0969,5.4409 19.6629,3.9999 L26.3369,3.9999 C25.9029,5.4409 24.5799,6.4999 22.9999,6.4999 Z M45.2979,7.0449 L29.4079,2.0869 C29.2829,2.0309 29.1449,1.9999 28.9999,1.9999 L16.9999,1.9999 C16.8669,1.9999 16.7389,2.0269 16.6229,2.0769 L0.7019,7.0449 C0.1959,7.2029 -0.0991,7.7289 0.0299,8.2419 L1.0299,12.2419 C1.1539,12.7419 1.6409,13.0569 2.1459,12.9889 L14.9999,11.0799 L14.9999,21.9119 C14.9999,22.0169 15.0169,22.1189 15.0479,22.2189 L16.0419,25.3069 C16.1759,25.7199 16.5599,25.9999 16.9939,25.9999 L29.0079,25.9999 C29.4399,25.9999 29.8239,25.7219 29.9589,25.3099 L30.9509,22.2629 C30.9829,22.1629 30.9999,22.0589 30.9999,21.9529 L30.9999,11.1169 L43.8549,12.9889 C44.3639,13.0709 44.8459,12.7409 44.9699,12.2419 L45.9699,8.2419 C46.0989,7.7289 45.8039,7.2029 45.2979,7.0449 Z" id="Fill-1" fill="#000000"></path>
        <path d="M26.9999,21.4326 L18.9999,21.4326 C18.7239,21.4326 18.4999,21.6566 18.4999,21.9326 C18.4999,22.2086 18.7239,22.4326 18.9999,22.4326 L26.9999,22.4326 C27.2759,22.4326 27.4999,22.2086 27.4999,21.9326 C27.4999,21.6566 27.2759,21.4326 26.9999,21.4326" id="Fill-4" fill="#000000"></path>
    </g>
</svg>