<svg width="46px" height="30px" viewBox="0 0 46 30" version="1.1" xmlns="http://www.w3.org/2000/svg" xmlns:xlink="http://www.w3.org/1999/xlink">
    <g id="longsleave_classic" stroke="none" stroke-width="1" fill="none" fill-rule="evenodd">
        <rect fill="#F7F3F0" x="0" y="0" width="46" height="30"></rect>
        <path d="M3.7294,8.1963 L4.2214,10.6593 L2.7504,10.8783 L2.1994,8.6743 L3.7294,8.1963 Z M17.1744,4.0003 L18.6214,4.0003 C19.0424,5.8423 20.5964,7.2393 22.5094,7.4503 C22.5074,7.4673 22.5004,7.4823 22.5004,7.5003 L22.5004,12.5003 C22.5004,12.7763 22.7234,13.0003 23.0004,13.0003 C23.2764,13.0003 23.5004,12.7763 23.5004,12.5003 L23.5004,7.5003 C23.5004,7.4823 23.4924,7.4673 23.4904,7.4503 C25.4034,7.2393 26.9584,5.8423 27.3784,4.0003 L28.8134,4.0003 C28.8224,4.0023 28.8324,4.0033 28.8404,4.0053 L40.9164,7.7733 L40.2494,10.4433 L30.1444,8.9713 C29.8524,8.9283 29.5654,9.0143 29.3454,9.2053 C29.1254,9.3943 29.0004,9.6713 29.0004,9.9613 L29.0004,24.0003 L17.0004,24.0003 L17.0004,9.9213 C17.0004,9.6303 16.8734,9.3533 16.6534,9.1643 C16.4334,8.9733 16.1414,8.8903 15.8534,8.9313 L5.2114,10.5113 L4.6894,7.8963 L17.1744,4.0003 Z M23.0004,6.5003 C21.4194,6.5003 20.0964,5.4403 19.6634,4.0003 L26.3364,4.0003 C25.9034,5.4403 24.5804,6.5003 23.0004,6.5003 Z M43.2494,10.8803 L41.2444,10.5883 L41.8734,8.0723 L43.8004,8.6743 L43.2494,10.8803 Z M1.0304,12.2423 C1.1544,12.7423 1.6444,13.0583 2.1464,12.9893 L15.0004,11.0803 L15.0004,25.0003 C15.0004,25.5523 15.4474,26.0003 16.0004,26.0003 L30.0004,26.0003 C30.5524,26.0003 31.0004,25.5523 31.0004,25.0003 L31.0004,11.1173 L43.8554,12.9893 C44.3674,13.0713 44.8454,12.7413 44.9694,12.2423 L45.9694,8.2423 C46.0984,7.7283 45.8034,7.2033 45.2974,7.0453 L29.4084,2.0873 C29.2834,2.0313 29.1454,2.0003 29.0004,2.0003 L17.0004,2.0003 C16.8674,2.0003 16.7394,2.0273 16.6234,2.0773 L0.7024,7.0453 C0.1964,7.2033 -0.0986,7.7283 0.0304,8.2423 L1.0304,12.2423 Z" id="Fill-1" fill="#000000"></path>
    </g>
</svg>