<svg width="46px" height="30px" viewBox="0 0 46 30" version="1.1" xmlns="http://www.w3.org/2000/svg" xmlns:xlink="http://www.w3.org/1999/xlink">
    <g id="shirt_casual" stroke="none" stroke-width="1" fill="none" fill-rule="evenodd">
        <rect fill="#F7F3F0" x="0" y="0" width="46" height="30"></rect>
        <path d="M43.2372,11.9268 L42.1822,11.8318 L42.7792,9.4438 L43.7912,9.7128 L43.2372,11.9268 Z M30.0902,10.7418 C29.8142,10.7158 29.5342,10.8108 29.3252,10.9998 C29.1182,11.1898 29.0002,11.4568 29.0002,11.7388 L29.0002,24.5548 C28.1962,25.2358 25.8292,26.9998 22.8762,26.9998 C19.9362,26.9998 17.7322,25.2458 17.0002,24.5778 L17.0002,11.6868 C17.0002,11.4058 16.8822,11.1368 16.6732,10.9478 C16.4652,10.7568 16.1862,10.6618 15.9062,10.6908 L4.8232,11.7308 L4.1872,9.1868 L16.1582,5.9998 L17.8622,5.9998 L19.5362,10.1858 C19.5912,10.3248 19.7082,10.4328 19.8512,10.4778 C19.9002,10.4918 19.9502,10.4998 20.0002,10.4998 C20.0972,10.4998 20.1942,10.4718 20.2772,10.4158 L22.9372,8.6428 L25.5982,10.4158 C25.6812,10.4718 25.7782,10.4998 25.8762,10.4998 C25.9242,10.4998 25.9722,10.4928 26.0192,10.4798 C26.1622,10.4368 26.2782,10.3318 26.3362,10.1958 L28.1182,5.9998 L29.7672,5.9998 C29.7942,6.0058 29.8202,6.0118 29.8472,6.0158 C29.8782,6.0208 29.9072,6.0238 29.9372,6.0258 L41.8122,9.1868 L41.1742,11.7408 L30.0902,10.7418 Z M2.2092,9.7128 L3.2202,9.4438 L3.8152,11.8248 L2.7612,11.9238 L2.2092,9.7128 Z M25.6962,3.4778 L27.1832,5.5778 C27.1892,5.5858 27.1962,5.5918 27.2022,5.5988 L25.6512,9.2488 L23.5202,7.8288 L25.6962,3.4778 Z M18.8322,5.5548 L20.1962,3.5088 L22.3552,7.8288 L20.2352,9.2418 L18.7832,5.6118 C18.7992,5.5918 18.8182,5.5758 18.8322,5.5548 Z M22.9372,6.7578 L21.0582,2.9998 L24.8162,2.9998 L22.9372,6.7578 Z M45.2572,8.0328 L30.3722,4.0718 C30.2572,4.0258 30.1312,3.9998 30.0002,3.9998 L28.5172,3.9998 L26.9872,1.8398 C26.9102,1.3638 26.4982,0.9998 26.0002,0.9998 L20.0002,0.9998 C19.6662,0.9998 19.3532,1.1668 19.1682,1.4458 L17.4652,3.9998 L16.0002,3.9998 C15.8782,3.9998 15.7612,4.0228 15.6542,4.0648 L0.7432,8.0328 C0.2152,8.1738 -0.1028,8.7128 0.0302,9.2418 L1.0302,13.2418 C1.1492,13.7228 1.5882,14.0398 2.0932,13.9958 L15.0002,12.7848 L15.0002,24.9998 C15.0002,25.2498 15.0932,25.4908 15.2622,25.6758 C15.3872,25.8118 18.3632,28.9998 22.8762,28.9998 C27.3622,28.9998 30.5722,25.8418 30.7072,25.7068 C30.8942,25.5198 31.0002,25.2658 31.0002,24.9998 L31.0002,12.8318 L43.9102,13.9958 C44.3902,14.0468 44.8502,13.7208 44.9692,13.2418 L45.9692,9.2418 C46.1022,8.7128 45.7852,8.1738 45.2572,8.0328 Z" id="Fill-3" fill="#000000"></path>
        <path d="M22.4999,10 C22.2239,10 21.9999,10.224 21.9999,10.5 L21.9999,24.5 C21.9999,24.776 22.2239,25 22.4999,25 C22.7759,25 22.9999,24.776 22.9999,24.5 L22.9999,10.5 C22.9999,10.224 22.7759,10 22.4999,10" id="Fill-1" fill="#000000"></path>
        <path d="M27.4999,12 C27.2239,12 26.9999,12.224 26.9999,12.5 L26.9999,16 L24.9999,16 L24.9999,12.5 C24.9999,12.224 24.7759,12 24.4999,12 C24.2239,12 23.9999,12.224 23.9999,12.5 L23.9999,16.5 C23.9999,16.776 24.2239,17 24.4999,17 L27.4999,17 C27.7759,17 27.9999,16.776 27.9999,16.5 L27.9999,12.5 C27.9999,12.224 27.7759,12 27.4999,12" id="Fill-6" fill="#000000"></path>
        <path d="M20.9999,7.5 C20.9999,7.224 20.7759,7 20.4999,7 C20.2239,7 19.9999,7.224 19.9999,7.5 C19.9999,7.776 20.2239,8 20.4999,8 C20.7759,8 20.9999,7.776 20.9999,7.5" id="Fill-8" fill="#000000"></path>
        <path d="M25.9999,7.5 C25.9999,7.224 25.7759,7 25.4999,7 C25.2239,7 24.9999,7.224 24.9999,7.5 C24.9999,7.776 25.2239,8 25.4999,8 C25.7759,8 25.9999,7.776 25.9999,7.5" id="Fill-10" fill="#000000"></path>
    </g>
</svg>