<svg width="46px" height="30px" viewBox="0 0 46 30" version="1.1" xmlns="http://www.w3.org/2000/svg" xmlns:xlink="http://www.w3.org/1999/xlink">
    <g id="shirt_classic" stroke="none" stroke-width="1" fill="none" fill-rule="evenodd">
        <rect fill="#F7F3F0" x="0" y="0" width="46" height="30"></rect>
        <path d="M22.4999,10 C22.2239,10 21.9999,10.224 21.9999,10.5 L21.9999,24.5 C21.9999,24.776 22.2239,25 22.4999,25 C22.7759,25 22.9999,24.776 22.9999,24.5 L22.9999,10.5 C22.9999,10.224 22.7759,10 22.4999,10" id="Fill-1" fill="#000000"></path>
        <path d="M43.2372,11.9268 L42.1822,11.8318 L42.7792,9.4438 L43.7912,9.7128 L43.2372,11.9268 Z M30.0902,10.7418 C29.8132,10.7158 29.5332,10.8108 29.3252,10.9998 C29.1182,11.1898 29.0002,11.4568 29.0002,11.7388 L29.0002,24.5548 C28.1962,25.2358 25.8292,26.9998 22.8762,26.9998 C19.9362,26.9998 17.7322,25.2458 17.0002,24.5778 L17.0002,11.6868 C17.0002,11.4058 16.8822,11.1368 16.6732,10.9478 C16.4652,10.7568 16.1862,10.6618 15.9062,10.6908 L4.8232,11.7308 L4.1872,9.1868 L16.1582,5.9998 L17.9832,5.9998 L20.0622,9.7428 C20.1292,9.8618 20.2402,9.9478 20.3712,9.9838 C20.4132,9.9938 20.4572,9.9998 20.5002,9.9998 C20.5902,9.9998 20.6782,9.9758 20.7572,9.9288 L22.9342,8.6218 L25.1762,9.9898 C25.2562,10.0378 25.3462,10.0628 25.4372,10.0628 C25.4792,10.0628 25.5222,10.0578 25.5632,10.0458 C25.6952,10.0118 25.8062,9.9258 25.8732,9.8078 L28.0112,5.9998 L29.7672,5.9998 C29.7942,6.0058 29.8202,6.0118 29.8472,6.0158 C29.8782,6.0208 29.9072,6.0238 29.9372,6.0258 L41.8122,9.1868 L41.1742,11.7408 L30.0902,10.7418 Z M2.2092,9.7128 L3.2202,9.4438 L3.8152,11.8248 L2.7612,11.9238 L2.2092,9.7128 Z M25.6962,3.4778 L27.1372,5.5138 L25.2552,8.8658 L23.5282,7.8128 L25.6962,3.4778 Z M20.1962,3.5088 L22.3452,7.8098 L20.6852,8.8058 L18.8582,5.5158 L20.1962,3.5088 Z M22.9372,6.7578 L21.0582,2.9998 L24.8162,2.9998 L22.9372,6.7578 Z M45.2572,8.0328 L30.3722,4.0718 C30.2572,4.0258 30.1312,3.9998 30.0002,3.9998 L28.5172,3.9998 L26.9872,1.8398 C26.9102,1.3638 26.4982,0.9998 26.0002,0.9998 L20.0002,0.9998 C19.6662,0.9998 19.3532,1.1668 19.1682,1.4458 L17.4652,3.9998 L16.0002,3.9998 C15.8782,3.9998 15.7612,4.0228 15.6542,4.0648 L0.7432,8.0328 C0.2152,8.1738 -0.1028,8.7128 0.0302,9.2418 L1.0302,13.2418 C1.1492,13.7228 1.5912,14.0398 2.0932,13.9958 L15.0002,12.7848 L15.0002,24.9998 C15.0002,25.2498 15.0932,25.4908 15.2622,25.6758 C15.3872,25.8118 18.3632,28.9998 22.8762,28.9998 C27.3622,28.9998 30.5722,25.8418 30.7072,25.7068 C30.8942,25.5198 31.0002,25.2658 31.0002,24.9998 L31.0002,12.8318 L43.9102,13.9958 C44.3902,14.0468 44.8502,13.7208 44.9692,13.2418 L45.9692,9.2418 C46.1022,8.7128 45.7852,8.1738 45.2572,8.0328 Z" id="Fill-3" fill="#000000"></path>
    </g>
</svg>