<?xml version="1.0" encoding="UTF-8"?>
<svg width="30px" height="30px" viewBox="0 0 30 30" version="1.1" xmlns="http://www.w3.org/2000/svg" xmlns:xlink="http://www.w3.org/1999/xlink">
    <!-- Generator: Sketch 52.5 (67469) - http://www.bohemiancoding.com/sketch -->
    <title>shorts</title>
    <desc>Created with Sketch.</desc>
    <g id="shorts" stroke="none" stroke-width="1" fill="none" fill-rule="evenodd">
        <rect fill="#F7F3F0" x="0" y="0" width="30" height="30"></rect>
        <path d="M15.9532,14.7061 C15.9812,14.6441 16.0002,14.5741 16.0002,14.5001 L16.0002,9.0001 L21.2042,9.0001 L21.9532,12.2461 L19.8532,10.1461 C19.6582,9.9511 19.3422,9.9511 19.1462,10.1461 C18.9512,10.3421 18.9512,10.6581 19.1462,10.8531 L22.3782,14.0851 L23.7762,20.1451 L21.6642,20.4091 L19.9742,15.3421 C19.8872,15.0801 19.6032,14.9391 19.3422,15.0251 C19.0802,15.1131 18.9382,15.3961 19.0252,15.6581 L20.6512,20.5361 L17.7262,20.9011 L15.9622,14.7261 C15.9602,14.7191 15.9552,14.7131 15.9532,14.7061 Z M12.2732,20.9011 L9.3492,20.5361 L10.9742,15.6581 C11.0612,15.3961 10.9202,15.1131 10.6582,15.0251 C10.3982,14.9391 10.1142,15.0801 10.0252,15.3421 L8.3362,20.4091 L6.2242,20.1451 L7.6222,14.0851 L10.8532,10.8531 C11.0492,10.6581 11.0492,10.3421 10.8532,10.1461 C10.6582,9.9511 10.3422,9.9511 10.1462,10.1461 L8.0472,12.2461 L8.7962,9.0001 L13.0002,9.0001 L13.0002,12.5001 C13.0002,13.3641 13.4402,14.1271 14.1092,14.5761 C14.0852,14.6261 14.0542,14.6711 14.0382,14.7261 L12.2732,20.9011 Z M15.0002,13.9141 C14.4182,13.7081 14.0002,13.1521 14.0002,12.5001 L14.0002,9.0001 L15.0002,9.0001 L15.0002,13.9141 Z M16.9992,23.0001 C17.0402,23.0001 17.0822,22.9971 17.1242,22.9921 L25.1242,21.9921 C25.4052,21.9571 25.6572,21.8051 25.8192,21.5721 C25.9812,21.3411 26.0382,21.0511 25.9742,20.7751 L22.9742,7.7751 C22.8702,7.3211 22.4662,7.0001 22.0002,7.0001 L8.0002,7.0001 C7.5342,7.0001 7.1302,7.3211 7.0252,7.7751 L4.0252,20.7751 C3.9622,21.0511 4.0182,21.3411 4.1812,21.5721 C4.3432,21.8051 4.5952,21.9571 4.8762,21.9921 L12.8762,22.9921 C13.3622,23.0501 13.8262,22.7481 13.9622,22.2741 L15.0002,18.6401 L16.0382,22.2741 C16.1622,22.7081 16.5582,23.0001 16.9992,23.0001 Z" id="Fill-1" fill="#000000"></path>
    </g>
</svg>