<?xml version="1.0" encoding="UTF-8"?>
<svg width="30px" height="30px" viewBox="0 0 30 30" version="1.1" xmlns="http://www.w3.org/2000/svg" xmlns:xlink="http://www.w3.org/1999/xlink">
    <!-- Generator: Sketch 52.5 (67469) - http://www.bohemiancoding.com/sketch -->
    <title>sneakers_casual</title>
    <desc>Created with Sketch.</desc>
    <g id="sneakers_casual" stroke="none" stroke-width="1" fill="none" fill-rule="evenodd">
        <rect fill="#F7F3F0" x="0" y="0" width="30" height="30"></rect>
        <path d="M2.1924,24 C2.3364,23.641 2.5784,23.313 2.8614,23 L27.0004,23 L27.0004,24 L2.1924,24 Z M8.8834,19.666 C9.6994,19.331 10.5194,18.991 11.3214,18.634 L12.0844,19.777 C12.1804,19.922 12.3384,20 12.5004,20 C12.5954,20 12.6924,19.973 12.7774,19.916 C13.0064,19.763 13.0694,19.452 12.9164,19.223 L12.2374,18.205 C12.6104,18.026 12.9734,17.839 13.3304,17.646 L14.0844,18.777 C14.1804,18.922 14.3384,19 14.5004,19 C14.5954,19 14.6924,18.973 14.7774,18.916 C15.0064,18.763 15.0694,18.452 14.9164,18.223 L14.1984,17.146 C14.5494,16.931 14.8874,16.705 15.2114,16.467 L16.0844,17.777 C16.1804,17.922 16.3384,18 16.5004,18 C16.5954,18 16.6924,17.973 16.7774,17.916 C17.0064,17.763 17.0694,17.452 16.9164,17.223 L15.9974,15.845 C16.5914,15.319 17.1174,14.739 17.5354,14.082 C17.9634,14.242 18.2094,14.654 18.6054,15.447 C19.1144,16.464 19.8814,18 22.0004,18 C24.3534,18 25.9424,17.389 27.0004,16.663 L27.0004,22 L4.0404,22 C5.3264,21.137 7.0744,20.41 8.8834,19.666 Z M28.1604,13.013 C27.6814,12.935 27.2074,13.218 27.0514,13.684 C27.0444,13.707 26.1634,16 22.0004,16 C21.1904,16 20.9304,15.625 20.3944,14.553 C19.8854,13.536 19.1184,12 17.0004,12 C16.6214,12 16.2754,12.214 16.1054,12.553 C15.8064,13.149 15.3784,13.681 14.8604,14.168 C14.6954,13.99 14.4264,13.946 14.2224,14.084 C13.9934,14.237 13.9304,14.548 14.0844,14.777 L14.0984,14.799 C13.7814,15.036 13.4454,15.264 13.0884,15.48 L12.9164,15.223 C12.7614,14.991 12.4494,14.932 12.2224,15.084 C11.9934,15.237 11.9304,15.548 12.0844,15.777 L12.2134,15.973 C11.8574,16.161 11.4924,16.345 11.1154,16.521 L10.9164,16.223 C10.7604,15.992 10.4504,15.932 10.2224,16.084 C9.9934,16.237 9.9304,16.548 10.0844,16.777 L10.1944,16.942 C9.5114,17.241 8.8164,17.531 8.1234,17.816 C4.1294,19.459 0.0004,21.157 0.0004,25 C0.0004,25.553 0.4474,26 1.0004,26 L28.0004,26 C28.5524,26 29.0004,25.553 29.0004,25 L29.0004,14 C29.0004,13.51 28.6444,13.092 28.1604,13.013 Z" id="Fill-1" fill="#000000"></path>
    </g>
</svg>