<?xml version="1.0" encoding="UTF-8"?>
<svg width="30px" height="30px" viewBox="0 0 30 30" version="1.1" xmlns="http://www.w3.org/2000/svg" xmlns:xlink="http://www.w3.org/1999/xlink">
    <!-- Generator: Sketch 52.5 (67469) - http://www.bohemiancoding.com/sketch -->
    <title>sneakers_sport</title>
    <desc>Created with Sketch.</desc>
    <g id="sneakers_sport" stroke="none" stroke-width="1" fill="none" fill-rule="evenodd">
        <rect fill="#F7F3F0" x="0" y="0" width="30" height="30"></rect>
        <path d="M15.8418,21.4746 C15.8948,21.4926 15.9468,21.4996 15.9998,21.4996 C16.2088,21.4996 16.4038,21.3676 16.4748,21.1586 L16.9998,19.5806 L17.5258,21.1586 C17.6618,21.5666 18.3378,21.5666 18.4748,21.1586 L19.4748,18.1586 C19.5618,17.8966 19.4198,17.6136 19.1578,17.5256 C18.8968,17.4386 18.6128,17.5806 18.5258,17.8416 L17.9998,19.4186 L17.4748,17.8416 C17.3378,17.4336 16.6618,17.4336 16.5258,17.8416 L15.5258,20.8416 C15.4388,21.1036 15.5798,21.3866 15.8418,21.4746" id="Fill-4" fill="#000000"></path>
        <path d="M2.1924,24 C2.3364,23.641 2.5784,23.313 2.8614,23 L27.0004,23 L27.0004,24 L2.1924,24 Z M8.8834,19.666 C9.0544,19.596 9.2264,19.523 9.3984,19.453 L10.8144,22 L4.0404,22 C5.3264,21.137 7.0744,20.41 8.8834,19.666 Z M15.0524,16.724 C15.1404,16.898 15.3174,17 15.5004,17 C15.5754,17 15.6514,16.983 15.7234,16.947 C15.9704,16.823 16.0704,16.523 15.9474,16.276 L15.8104,16.004 C16.4834,15.437 17.0744,14.807 17.5354,14.082 C17.9634,14.242 18.2094,14.654 18.6054,15.447 C19.1144,16.464 19.8814,18 22.0004,18 C23.1984,18 24.1974,17.84 25.0294,17.589 L27.0004,19.173 L27.0004,22 L11.9584,22 L10.3264,19.065 C10.5764,18.959 10.8234,18.852 11.0704,18.742 C11.1624,18.902 11.3264,19 11.5004,19 C11.5754,19 11.6514,18.983 11.7234,18.947 C11.9524,18.833 12.0464,18.569 11.9634,18.335 C12.3484,18.154 12.7264,17.966 13.0964,17.771 C13.1914,17.91 13.3384,18 13.5004,18 C13.5754,18 13.6514,17.983 13.7234,17.947 C13.9634,17.827 14.0594,17.543 13.9544,17.3 C14.3174,17.086 14.6694,16.862 15.0044,16.626 L15.0524,16.724 Z M27.0004,16.663 L27.0004,17.89 L26.1104,17.175 C26.4414,17.016 26.7374,16.843 27.0004,16.663 Z M28.1604,13.013 C27.6824,12.935 27.2074,13.218 27.0514,13.684 C27.0444,13.707 26.1634,16 22.0004,16 C21.1904,16 20.9304,15.625 20.3944,14.553 C19.8854,13.536 19.1184,12 17.0004,12 C16.6214,12 16.2754,12.214 16.1054,12.553 C15.8074,13.149 15.3784,13.681 14.8614,14.167 C14.7144,14.008 14.4814,13.951 14.2764,14.053 C14.0294,14.177 13.9294,14.477 14.0524,14.724 L14.0924,14.804 C13.7684,15.046 13.4244,15.278 13.0584,15.499 L12.9474,15.276 C12.8234,15.029 12.5234,14.929 12.2764,15.053 C12.0294,15.177 11.9294,15.477 12.0524,15.724 L12.1854,15.988 C11.8264,16.178 11.4584,16.361 11.0794,16.539 L10.9474,16.276 C10.8234,16.029 10.5244,15.929 10.2764,16.053 C10.0294,16.177 9.9294,16.477 10.0524,16.724 L10.1684,16.954 C9.4944,17.248 8.8074,17.535 8.1234,17.816 C4.1294,19.459 0.0004,21.157 0.0004,25 C0.0004,25.553 0.4474,26 1.0004,26 L28.0004,26 C28.5524,26 29.0004,25.553 29.0004,25 L29.0004,14 C29.0004,13.51 28.6444,13.092 28.1604,13.013 Z" id="Fill-1" fill="#000000"></path>
    </g>
</svg>