<?xml version="1.0" encoding="UTF-8"?>
<svg width="30px" height="30px" viewBox="0 0 30 30" version="1.1" xmlns="http://www.w3.org/2000/svg" xmlns:xlink="http://www.w3.org/1999/xlink">
    <!-- Generator: Sketch 52.5 (67469) - http://www.bohemiancoding.com/sketch -->
    <title>socks</title>
    <desc>Created with Sketch.</desc>
    <g id="socks" stroke="none" stroke-width="1" fill="none" fill-rule="evenodd">
        <rect fill="#F7F3F0" x="0" y="0" width="30" height="30"></rect>
        <path d="M4.2422,18.707 L5.3882,17.561 L8.9742,21.146 L7.8282,22.293 C6.8402,23.281 5.2302,23.281 4.2422,22.293 C3.2542,21.305 3.2542,19.695 4.2422,18.707 Z M8.7422,14.207 C8.9292,14.02 9.0352,13.766 9.0352,13.5 L9.0352,5.5 L14.0352,5.5 L14.0352,12.121 C12.0352,12.578 10.5352,14.363 10.5352,16.5 C10.5352,17.36 10.7842,18.18 11.2322,18.889 L9.6812,20.439 L6.0962,16.853 L8.7422,14.207 Z M9.0352,4.5 L14.0352,4.5 L14.0352,3 L9.0352,3 L9.0352,4.5 Z M11.5352,16.5 C11.5352,14.919 12.5932,13.587 14.0352,13.154 L14.0352,16.086 L11.9572,18.164 C11.6832,17.658 11.5352,17.092 11.5352,16.5 Z M6.0352,25.033 C7.1962,25.033 8.3582,24.592 9.2422,23.707 L15.7422,17.207 C15.9302,17.02 16.0352,16.766 16.0352,16.5 L16.0352,2 C16.0352,1.447 15.5882,1 15.0352,1 L8.0352,1 C7.4822,1 7.0352,1.447 7.0352,2 L7.0352,13.086 L2.8282,17.293 C1.9712,18.149 1.5002,19.289 1.5002,20.5 C1.5002,21.711 1.9712,22.851 2.8282,23.707 C3.7122,24.592 4.8742,25.033 6.0352,25.033 Z" id="Fill-1" fill="#000000"></path>
        <path d="M15.2422,26.293 C14.2542,25.305 14.2542,23.695 15.2422,22.707 L16.3882,21.561 L19.9742,25.147 L18.8282,26.293 C17.8402,27.281 16.2302,27.281 15.2422,26.293 Z M19.7422,18.207 C19.9292,18.02 20.0352,17.766 20.0352,17.5 L20.0352,9.5 L25.0352,9.5 L25.0352,16.121 C23.0352,16.578 21.5352,18.363 21.5352,20.5 C21.5352,21.36 21.7842,22.18 22.2322,22.889 L20.6812,24.439 L17.0962,20.854 L19.7422,18.207 Z M20.0352,8.5 L25.0352,8.5 L25.0352,7 L20.0352,7 L20.0352,8.5 Z M22.5352,20.5 C22.5352,18.919 23.5932,17.587 25.0352,17.154 L25.0352,20.086 L22.9572,22.164 C22.6832,21.658 22.5352,21.092 22.5352,20.5 Z M19.0352,5 C18.4822,5 18.0352,5.447 18.0352,6 L18.0352,17.086 L13.8282,21.293 C12.9712,22.149 12.5002,23.289 12.5002,24.5 C12.5002,25.711 12.9712,26.851 13.8282,27.707 C14.7122,28.592 15.8742,29.033 17.0352,29.033 C18.1962,29.033 19.3582,28.592 20.2422,27.707 L26.7422,21.207 C26.9302,21.02 27.0352,20.766 27.0352,20.5 L27.0352,6 C27.0352,5.447 26.5882,5 26.0352,5 L19.0352,5 Z" id="Fill-4" fill="#000000"></path>
    </g>
</svg>