<?xml version="1.0" encoding="UTF-8"?>
<svg width="30px" height="30px" viewBox="0 0 30 30" version="1.1" xmlns="http://www.w3.org/2000/svg" xmlns:xlink="http://www.w3.org/1999/xlink">
    <!-- Generator: Sketch 52.5 (67469) - http://www.bohemiancoding.com/sketch -->
    <title>socks_warm</title>
    <desc>Created with Sketch.</desc>
    <g id="socks_warm" stroke="none" stroke-width="1" fill="none" fill-rule="evenodd">
        <rect fill="#F7F3F0" x="0" y="0" width="30" height="30"></rect>
        <path d="M7.8115,20.9473 C7.8835,20.9833 7.9595,21.0003 8.0355,21.0003 C8.2175,21.0003 8.3945,20.8983 8.4825,20.7233 L9.4825,18.7233 C9.6055,18.4763 9.5055,18.1763 9.2585,18.0523 C9.0115,17.9303 8.7115,18.0293 8.5875,18.2763 L7.5875,20.2763 C7.4645,20.5233 7.5645,20.8233 7.8115,20.9473" id="Fill-7" fill="#000000"></path>
        <path d="M9.0352,16 L10.0352,16 C10.3112,16 10.5352,15.776 10.5352,15.5 C10.5352,15.224 10.3112,15 10.0352,15 L9.0352,15 C8.7592,15 8.5352,15.224 8.5352,15.5 C8.5352,15.776 8.7592,16 9.0352,16" id="Fill-9" fill="#000000"></path>
        <path d="M11.5352,13.5 C11.5352,13.776 11.7592,14 12.0352,14 L13.0352,14 C13.3112,14 13.5352,13.776 13.5352,13.5 C13.5352,13.224 13.3112,13 13.0352,13 L12.0352,13 C11.7592,13 11.5352,13.224 11.5352,13.5" id="Fill-11" fill="#000000"></path>
        <path d="M11.6816,8.8535 C11.7796,8.9515 11.9076,8.9995 12.0356,8.9995 C12.1626,8.9995 12.2906,8.9515 12.3886,8.8535 L13.3886,7.8535 C13.5836,7.6585 13.5836,7.3415 13.3886,7.1465 C13.1936,6.9515 12.8766,6.9515 12.6816,7.1465 L11.6816,8.1465 C11.4866,8.3415 11.4866,8.6585 11.6816,8.8535" id="Fill-13" fill="#000000"></path>
        <path d="M11.5352,5.5 C11.5352,5.224 11.3112,5 11.0352,5 C10.7592,5 10.5352,5.224 10.5352,5.5 L10.5352,6.5 C10.5352,6.776 10.7592,7 11.0352,7 C11.3112,7 11.5352,6.776 11.5352,6.5 L11.5352,5.5 Z" id="Fill-15" fill="#000000"></path>
        <path d="M18.0352,21 C17.7592,21 17.5352,21.224 17.5352,21.5 L17.5352,22.5 C17.5352,22.776 17.7592,23 18.0352,23 C18.3112,23 18.5352,22.776 18.5352,22.5 L18.5352,21.5 C18.5352,21.224 18.3112,21 18.0352,21" id="Fill-17" fill="#000000"></path>
        <path d="M22.6816,19.8535 C22.7796,19.9515 22.9076,19.9995 23.0356,19.9995 C23.1626,19.9995 23.2906,19.9515 23.3886,19.8535 L24.3886,18.8535 C24.5836,18.6585 24.5836,18.3415 24.3886,18.1465 C24.1936,17.9515 23.8766,17.9515 23.6816,18.1465 L22.6816,19.1465 C22.4866,19.3415 22.4866,19.6585 22.6816,19.8535" id="Fill-19" fill="#000000"></path>
        <path d="M21.6816,16.8535 C21.7796,16.9515 21.9076,16.9995 22.0356,16.9995 C22.1626,16.9995 22.2906,16.9515 22.3886,16.8535 C22.5836,16.6585 22.5836,16.3415 22.3886,16.1465 L21.3886,15.1465 C21.1936,14.9515 20.8766,14.9515 20.6816,15.1465 C20.4866,15.3415 20.4866,15.6585 20.6816,15.8535 L21.6816,16.8535 Z" id="Fill-21" fill="#000000"></path>
        <path d="M22.0352,13 C22.1632,13 22.2912,12.951 22.3892,12.854 L23.3892,11.854 C23.5842,11.658 23.5842,11.342 23.3892,11.146 C23.1932,10.951 22.8772,10.951 22.6812,11.146 L21.6812,12.146 C21.4862,12.342 21.4862,12.658 21.6812,12.854 C21.7792,12.951 21.9072,13 22.0352,13" id="Fill-23" fill="#000000"></path>
        <path d="M3.5312,20.8115 L5.2592,19.9475 C5.5062,19.8235 5.6052,19.5235 5.4822,19.2765 C5.3582,19.0295 5.0592,18.9285 4.8112,19.0525 L3.6622,19.6275 C3.7842,19.2915 3.9732,18.9755 4.2422,18.7075 L6.3882,16.5605 L6.6812,16.8535 C6.7792,16.9515 6.9072,16.9995 7.0352,16.9995 C7.1632,16.9995 7.2912,16.9515 7.3882,16.8535 C7.5842,16.6585 7.5842,16.3415 7.3882,16.1465 L7.0952,15.8535 L8.7422,14.2075 C8.9292,14.0195 9.0352,13.7655 9.0352,13.4995 L9.0352,10.9995 C9.1102,10.9995 9.1862,10.9835 9.2592,10.9475 L11.2592,9.9475 C11.5062,9.8235 11.6052,9.5235 11.4822,9.2765 C11.3582,9.0295 11.0592,8.9295 10.8112,9.0525 L9.0352,9.9415 L9.0352,7.9995 C9.2442,7.9995 9.4392,7.8675 9.5102,7.6585 C9.5962,7.3965 9.4552,7.1135 9.1932,7.0255 L9.0352,6.9725 L9.0352,2.9995 L9.8282,2.9995 L10.6812,3.8535 C10.7792,3.9515 10.9072,3.9995 11.0352,3.9995 C11.1632,3.9995 11.2912,3.9515 11.3882,3.8535 C11.5842,3.6585 11.5842,3.3415 11.3882,3.1465 L11.2422,2.9995 L14.0352,2.9995 L14.0352,3.9995 L13.0352,3.9995 C12.7592,3.9995 12.5352,4.2235 12.5352,4.4995 C12.5352,4.7765 12.7592,4.9995 13.0352,4.9995 L14.0352,4.9995 L14.0352,9.9995 L13.0352,9.9995 C12.7592,9.9995 12.5352,10.2235 12.5352,10.4995 C12.5352,10.7765 12.7592,10.9995 13.0352,10.9995 L14.0352,10.9995 L14.0352,16.0855 L13.1812,16.9395 L12.3882,16.1465 C12.1932,15.9515 11.8772,15.9515 11.6812,16.1465 C11.4862,16.3415 11.4862,16.6585 11.6812,16.8535 L12.4742,17.6465 L7.8282,22.2925 C7.4622,22.6595 7.0092,22.8885 6.5352,22.9835 L6.5352,22.4995 C6.5352,22.2235 6.3112,21.9995 6.0352,21.9995 C5.7592,21.9995 5.5352,22.2235 5.5352,22.4995 L5.5352,22.9835 C5.0612,22.8885 4.6082,22.6595 4.2422,22.2925 C3.8272,21.8775 3.5972,21.3535 3.5312,20.8115 Z M15.7422,17.2075 C15.9292,17.0195 16.0352,16.7655 16.0352,16.4995 L16.0352,10.9995 L17.0352,10.9995 C17.3112,10.9995 17.5352,10.7765 17.5352,10.4995 C17.5352,10.2235 17.3112,9.9995 17.0352,9.9995 L16.0352,9.9995 L16.0352,3.5585 L17.2592,2.9475 C17.5062,2.8235 17.6052,2.5235 17.4822,2.2765 C17.3582,2.0295 17.0592,1.9285 16.8112,2.0525 L16.0352,2.4415 L16.0352,1.9995 C16.0352,1.4475 15.5882,0.9995 15.0352,0.9995 L8.0352,0.9995 C7.4822,0.9995 7.0352,1.4475 7.0352,1.9995 L6.0352,1.9995 C5.7592,1.9995 5.5352,2.2235 5.5352,2.4995 C5.5352,2.7765 5.7592,2.9995 6.0352,2.9995 L7.0352,2.9995 L7.0352,6.3055 L6.1932,6.0255 C5.9332,5.9395 5.6492,6.0805 5.5602,6.3415 C5.4732,6.6035 5.6152,6.8865 5.8772,6.9745 L7.0352,7.3605 L7.0352,9.9995 L6.0352,9.9995 C5.7592,9.9995 5.5352,10.2235 5.5352,10.4995 C5.5352,10.7765 5.7592,10.9995 6.0352,10.9995 L7.0352,10.9995 L7.0352,13.0855 L3.6812,16.4395 L3.3882,16.1465 C3.1932,15.9515 2.8772,15.9515 2.6812,16.1465 C2.4862,16.3415 2.4862,16.6585 2.6812,16.8535 L2.9742,17.1465 L2.8282,17.2925 C1.9712,18.1495 1.5002,19.2895 1.5002,20.4995 C1.5002,21.5405 1.8672,22.5175 2.5092,23.3195 L1.6812,24.1465 C1.4862,24.3415 1.4862,24.6585 1.6812,24.8535 C1.7792,24.9515 1.9072,24.9995 2.0352,24.9995 C2.1632,24.9995 2.2912,24.9515 2.3882,24.8535 L3.2172,24.0255 C4.0412,24.6835 5.0332,25.0335 6.0352,25.0335 C6.7132,25.0335 7.3852,24.8645 8.0082,24.5625 L8.5882,25.7235 C8.6762,25.8985 8.8522,25.9995 9.0352,25.9995 C9.1102,25.9995 9.1862,25.9835 9.2592,25.9475 C9.5062,25.8235 9.6052,25.5235 9.4822,25.2765 L8.8552,24.0225 C8.9852,23.9185 9.1222,23.8275 9.2422,23.7075 L15.7422,17.2075 Z" id="Fill-1" fill="#000000"></path>
        <path d="M17.5352,26.9834 L17.5352,25.5004 C17.5352,25.2234 17.3112,25.0004 17.0352,25.0004 C16.7592,25.0004 16.5352,25.2234 16.5352,25.5004 L16.5352,26.9834 C16.1772,26.9124 15.8362,26.7544 15.5292,26.5274 C15.5372,26.3904 15.4932,26.2514 15.3892,26.1464 C15.2842,26.0424 15.1442,25.9984 15.0082,26.0054 C14.3702,25.1474 14.3372,23.9794 14.9252,23.0964 L15.6812,23.8534 C15.7792,23.9514 15.9072,24.0004 16.0352,24.0004 C16.1632,24.0004 16.2912,23.9514 16.3892,23.8534 C16.5842,23.6584 16.5842,23.3414 16.3892,23.1464 L15.5962,22.3534 L19.7422,18.2074 C19.9302,18.0194 20.0352,17.7654 20.0352,17.5004 L20.0352,10.2074 L20.6812,10.8534 C20.7792,10.9514 20.9072,11.0004 21.0352,11.0004 C21.1632,11.0004 21.2912,10.9514 21.3892,10.8534 C21.5842,10.6584 21.5842,10.3414 21.3892,10.1464 L20.3892,9.1464 C20.2912,9.0484 20.1632,9.0004 20.0352,9.0004 L20.0352,7.0004 L25.0352,7.0004 C24.9072,7.0004 24.7792,7.0484 24.6812,7.1464 L23.6812,8.1464 C23.4862,8.3414 23.4862,8.6584 23.6812,8.8534 C23.7792,8.9514 23.9072,9.0004 24.0352,9.0004 C24.1632,9.0004 24.2912,8.9514 24.3892,8.8534 L25.0352,8.2074 L25.0352,20.0864 L24.1062,21.0144 C24.0822,21.0104 24.0602,21.0004 24.0352,21.0004 L22.0352,21.0004 C21.7592,21.0004 21.5352,21.2234 21.5352,21.5004 C21.5352,21.7764 21.7592,22.0004 22.0352,22.0004 L23.1212,22.0004 L20.6032,24.5174 L20.4822,24.2764 C20.3582,24.0294 20.0592,23.9294 19.8112,24.0524 C19.5642,24.1764 19.4652,24.4764 19.5882,24.7234 L19.8572,25.2634 L18.8282,26.2934 C18.4622,26.6594 18.0092,26.8884 17.5352,26.9834 Z M23.8892,24.0604 L24.6812,24.8534 C24.7792,24.9514 24.9072,25.0004 25.0352,25.0004 C25.1632,25.0004 25.2912,24.9514 25.3892,24.8534 C25.5842,24.6584 25.5842,24.3414 25.3892,24.1464 L24.5962,23.3534 L26.7422,21.2074 C26.9302,21.0194 27.0352,20.7654 27.0352,20.5004 L27.0352,18.0004 C27.3112,18.0004 27.5352,17.7764 27.5352,17.5004 C27.5352,17.2234 27.3112,17.0004 27.0352,17.0004 L27.0352,15.5584 L28.2592,14.9474 C28.5062,14.8234 28.6052,14.5234 28.4822,14.2764 C28.3582,14.0294 28.0582,13.9284 27.8112,14.0524 L27.0352,14.4414 L27.0352,12.0004 L28.0352,12.0004 C28.3112,12.0004 28.5352,11.7764 28.5352,11.5004 C28.5352,11.2234 28.3112,11.0004 28.0352,11.0004 L27.0352,11.0004 L27.0352,6.0004 C27.0352,5.4474 26.5882,5.0004 26.0352,5.0004 L19.5352,5.0004 L19.5352,4.5004 C19.5352,4.2234 19.3112,4.0004 19.0352,4.0004 C18.7592,4.0004 18.5352,4.2234 18.5352,4.5004 L18.5352,5.1534 C18.2412,5.3274 18.0352,5.6334 18.0352,6.0004 L18.0352,7.0004 L17.0352,7.0004 C16.7592,7.0004 16.5352,7.2234 16.5352,7.5004 C16.5352,7.7764 16.7592,8.0004 17.0352,8.0004 L18.0352,8.0004 L18.0352,14.0004 L17.0352,14.0004 C16.7592,14.0004 16.5352,14.2234 16.5352,14.5004 C16.5352,14.7764 16.7592,15.0004 17.0352,15.0004 L18.0352,15.0004 L18.0352,17.0864 L14.1072,21.0134 C13.9562,20.9924 13.7982,21.0304 13.6812,21.1464 C13.5532,21.2754 13.5172,21.4564 13.5582,21.6214 C13.2142,22.0364 12.9472,22.4994 12.7712,23.0004 L12.0352,23.0004 C11.7592,23.0004 11.5352,23.2234 11.5352,23.5004 C11.5352,23.7764 11.7592,24.0004 12.0352,24.0004 L12.5492,24.0004 C12.5302,24.1664 12.5002,24.3304 12.5002,24.5004 C12.5002,25.5674 12.8852,26.5674 13.5582,27.3794 C13.5172,27.5444 13.5532,27.7244 13.6812,27.8534 C13.7792,27.9514 13.9072,28.0004 14.0352,28.0004 C14.0772,28.0004 14.1172,27.9864 14.1572,27.9764 C14.9932,28.6684 16.0092,29.0334 17.0352,29.0334 C18.1962,29.0334 19.3582,28.5914 20.2422,27.7074 L20.9682,26.9814 C20.9912,26.9844 21.0122,27.0004 21.0352,27.0004 C21.1102,27.0004 21.1862,26.9834 21.2592,26.9474 C21.4572,26.8474 21.5542,26.6344 21.5222,26.4264 L23.8892,24.0604 Z" id="Fill-4" fill="#000000"></path>
    </g>
</svg>