<?xml version="1.0" encoding="UTF-8"?>
<svg width="30px" height="30px" viewBox="0 0 30 30" version="1.1" xmlns="http://www.w3.org/2000/svg" xmlns:xlink="http://www.w3.org/1999/xlink">
    <!-- Generator: Sketch 52.5 (67469) - http://www.bohemiancoding.com/sketch -->
    <title>sorel</title>
    <desc>Created with Sketch.</desc>
    <g id="sorel" stroke="none" stroke-width="1" fill="none" fill-rule="evenodd">
        <rect fill="#F7F3F0" x="0" y="0" width="30" height="30"></rect>
        <path d="M20.127,9.5 L21,9.5 L21,11.5 L20.127,11.5 L19.572,10.5 L20.127,9.5 Z M19.396,12.243 C19.484,12.401 19.651,12.5 19.833,12.5 L21.5,12.5 C21.776,12.5 22,12.276 22,12 L22,9 C22,8.724 21.776,8.5 21.5,8.5 L19.833,8.5 C19.651,8.5 19.484,8.599 19.396,8.757 L18.563,10.257 C18.48,10.408 18.48,10.592 18.563,10.743 L19.396,12.243 Z" id="Fill-1" fill="#000000"></path>
        <path d="M19.5303,14.5322 L20.3323,14.8752 L19.5473,16.7142 L18.7453,16.3712 L18.6273,15.2332 L19.5303,14.5322 Z M18.0823,17.1762 L19.6143,17.8302 C19.6763,17.8562 19.7443,17.8702 19.8103,17.8702 C19.8743,17.8702 19.9373,17.8582 19.9973,17.8342 C20.1203,17.7852 20.2183,17.6882 20.2703,17.5662 L21.4483,14.8072 C21.5563,14.5532 21.4383,14.2602 21.1843,14.1512 L19.6523,13.4972 C19.4843,13.4282 19.2933,13.4522 19.1493,13.5612 L17.7943,14.6132 C17.6573,14.7192 17.5853,14.8882 17.6033,15.0602 L17.7813,16.7672 C17.8003,16.9482 17.9153,17.1042 18.0823,17.1762 Z" id="Fill-3" fill="#000000"></path>
        <path d="M14.52,17.0877193 C16.434,18.4395789 18.301,19.4249825 20.89,19.4249825 C22.558,19.4249825 24.527,19.0143158 27,18.034807 L27,23 L3,23 C3.647,19.7588772 5.819,19.1754386 9,19.1754386 C11.3,19.1754386 13.155,18.4710175 14.52,17.0877193 Z M17,2.96491228 L27,2.96491228 C27.827,2.96491228 28.5,3.62610526 28.5,4.43859649 C28.5,5.01922807 28.146,5.54877193 27.596,5.78652632 C27.474,5.83957895 27.374,5.92014035 27.285,6.01150877 C27.203,5.95354386 27.108,5.9122807 27,5.9122807 L17,5.9122807 C16.894,5.9122807 16.801,5.95157895 16.721,6.00757895 C16.632,5.92014035 16.533,5.84252632 16.414,5.79242105 C15.858,5.55761404 15.5,5.02610526 15.5,4.43859649 C15.5,3.62610526 16.173,2.96491228 17,2.96491228 Z M17.036,7.00182456 L17.03,6.89473684 L27,6.89473684 L27,16.9668772 C20.931,19.4642807 18.163,18.4405614 15.163,16.3341754 C17.412,13.3013333 17.144,8.78498246 17.036,7.00182456 Z M3.021,25 C3.021,25 3.021,24 3.021,24 L27,24.000442 L27,25.0005 L3.021,25 Z M17,1 C15.07,1 13.5,2.54245614 13.5,4.43859649 C13.5,5.59592982 14.092,6.65796491 15.05,7.28968421 C15.157,9.0954386 15.34,13.3769825 13.136,15.6749474 C12.144,16.7075088 10.791,17.2105263 9,17.2105263 C3.623,17.2105263 1.263,19.5084912 1.023,25.0750877 C1.016,25.0750877 1.009,25.0701754 1,25.0701754 C0.447,25.0701754 0,25.5093333 0,26.0526316 L0,28.0175439 C0,28.5608421 0.447,29 1,29 C1.553,29 2,28.5608421 2,28.0175439 L2,27.0350877 L3,27.0350877 L3,28.0175439 C3,28.5608421 3.447,29 4,29 C4.553,29 5,28.5608421 5,28.0175439 L5,27.0350877 L6,27.0350877 L6,28.0175439 C6,28.5608421 6.447,29 7,29 C7.553,29 8,28.5608421 8,28.0175439 L8,27.0350877 L9,27.0350877 L9,28.0175439 C9,28.5608421 9.447,29 10,29 C10.553,29 11,28.5608421 11,28.0175439 L11,27.0350877 L12,27.0350877 L12,28.0175439 C12,28.5608421 12.447,29 13,29 C13.553,29 14,28.5608421 14,28.0175439 L14,27.0350877 L15,27.0350877 L15,28.0175439 C15,28.5608421 15.447,29 16,29 C16.553,29 17,28.5608421 17,28.0175439 L17,27.0350877 L18,27.0350877 L18,28.0175439 C18,28.5608421 18.447,29 19,29 C19.553,29 20,28.5608421 20,28.0175439 L20,27.0350877 L21,27.0350877 L21,28.0175439 C21,28.5608421 21.447,29 22,29 C22.553,29 23,28.5608421 23,28.0175439 L23,27.0350877 L24,27.0350877 L24,28.0175439 C24,28.5608421 24.447,29 25,29 C25.553,29 26,28.5608421 26,28.0175439 L26,27.0350877 L27,27.0350877 L27,28.0175439 C27,28.5608421 27.447,29 28,29 C28.553,29 29,28.5608421 29,28.0175439 L29,26.0526316 L29,7.25431579 C29.928,6.61768421 30.5,5.57038596 30.5,4.43859649 C30.5,2.54245614 28.93,1 27,1 L17,1 Z" id="Fill-5" fill="#000000"></path>
    </g>
</svg>