<?xml version="1.0" encoding="UTF-8"?>
<svg width="46px" height="30px" viewBox="0 0 46 30" version="1.1" xmlns="http://www.w3.org/2000/svg" xmlns:xlink="http://www.w3.org/1999/xlink">
    <!-- Generator: Sketch 52.5 (67469) - http://www.bohemiancoding.com/sketch -->
    <title>sweater</title>
    <desc>Created with Sketch.</desc>
    <g id="sweater" stroke="none" stroke-width="1" fill="none" fill-rule="evenodd">
        <rect fill="#F7F3F0" x="0" y="0" width="46" height="30"></rect>
        <g id="Group-64" transform="translate(0.000000, 2.000000)" fill="#000000">
            <path d="M43.2489,12.8799 L41.2439,12.5879 L41.8729,10.0719 L43.8009,10.6739 L43.2489,12.8799 Z M30.1449,10.9719 C29.8519,10.9289 29.5639,11.0159 29.3459,11.2049 C29.1259,11.3949 28.9999,11.6709 28.9999,11.9609 L28.9999,13.4999 L28.9999,17.4999 L28.9999,24.9999 L16.9999,24.9999 L16.9999,16.4999 L16.9999,12.4999 L16.9999,11.9209 C16.9999,11.6299 16.8729,11.3539 16.6529,11.1639 C16.4339,10.9739 16.1419,10.8929 15.8529,10.9319 L5.2119,12.5119 L4.6889,9.8969 L17.1749,5.9999 L18.2729,5.9999 C18.5389,5.9999 18.7899,5.8939 18.9749,5.7129 C19.2719,5.8909 19.6179,5.9999 19.9909,5.9999 L26.0089,5.9999 C26.3819,5.9999 26.7279,5.8909 27.0249,5.7129 C27.2099,5.8939 27.4609,5.9999 27.7269,5.9999 L28.7679,5.9999 C28.7939,6.0059 28.8199,6.0119 28.8479,6.0159 C28.8629,6.0189 28.8799,6.0209 28.8949,6.0219 L40.9159,9.7739 L40.2489,12.4429 L30.1449,10.9719 Z M2.1989,10.6739 L3.7289,10.1959 L4.2219,12.6589 L2.7499,12.8779 L2.1989,10.6739 Z M19.1229,4.4609 C19.0989,4.4149 19.0799,4.3689 19.0629,4.3219 C19.0289,4.2229 18.9999,4.1199 18.9999,4.0099 L18.9999,4.0089 L18.9999,2.9909 C18.9999,2.8549 19.0269,2.7249 19.0779,2.6059 C19.1999,2.3169 19.4639,2.1149 19.7749,2.0439 C19.8469,2.0269 19.9149,1.9999 19.9909,1.9999 L26.0089,1.9999 C26.0769,1.9999 26.1379,2.0259 26.2029,2.0389 C26.5889,2.1189 26.8809,2.4109 26.9609,2.7969 C26.9749,2.8619 26.9999,2.9229 26.9999,2.9909 L26.9999,4.0089 L26.9999,4.0099 C26.9999,4.1199 26.9709,4.2229 26.9369,4.3219 C26.9199,4.3689 26.9009,4.4149 26.8769,4.4609 C26.7109,4.7769 26.3899,4.9999 26.0089,4.9999 L19.9909,4.9999 C19.6099,4.9999 19.2889,4.7769 19.1229,4.4609 Z M45.2979,9.0449 L29.4079,4.0869 C29.2829,4.0309 29.1449,3.9999 28.9999,3.9999 L28.9999,2.9909 C28.9999,1.3419 27.6579,-0.0001 26.0089,-0.0001 L19.9909,-0.0001 C18.3419,-0.0001 16.9999,1.3419 16.9999,2.9909 L16.9999,3.9999 C16.8669,3.9999 16.7389,4.0269 16.6229,4.0769 L0.7019,9.0449 C0.1959,9.2029 -0.0991,9.7289 0.0299,10.2419 L1.0299,14.2419 C1.1539,14.7419 1.6439,15.0569 2.1459,14.9889 L14.9999,13.0799 L14.9999,25.9999 C14.9999,26.5529 15.4469,26.9999 15.9999,26.9999 L29.9999,26.9999 C30.5529,26.9999 30.9999,26.5529 30.9999,25.9999 L30.9999,13.1169 L43.8549,14.9889 C44.3669,15.0709 44.8459,14.7409 44.9699,14.2419 L45.9699,10.2419 C46.0989,9.7289 45.8039,9.2029 45.2979,9.0449 Z" id="Fill-1"></path>
            <path d="M18.4999,12 C18.7749,12 18.9999,11.775 18.9999,11.5 C18.9999,11.225 18.7749,11 18.4999,11 C18.2249,11 17.9999,11.225 17.9999,11.5 C17.9999,11.775 18.2249,12 18.4999,12" id="Fill-4"></path>
            <path d="M19.4999,13 C19.7749,13 19.9999,12.775 19.9999,12.5 C19.9999,12.225 19.7749,12 19.4999,12 C19.2249,12 18.9999,12.225 18.9999,12.5 C18.9999,12.775 19.2249,13 19.4999,13" id="Fill-6"></path>
            <path d="M18.4999,14 C18.7749,14 18.9999,13.775 18.9999,13.5 C18.9999,13.225 18.7749,13 18.4999,13 C18.2249,13 17.9999,13.225 17.9999,13.5 C17.9999,13.775 18.2249,14 18.4999,14" id="Fill-8"></path>
            <path d="M20.4999,12 C20.7749,12 20.9999,11.775 20.9999,11.5 C20.9999,11.225 20.7749,11 20.4999,11 C20.2249,11 19.9999,11.225 19.9999,11.5 C19.9999,11.775 20.2249,12 20.4999,12" id="Fill-10"></path>
            <path d="M21.4999,13 C21.7749,13 21.9999,12.775 21.9999,12.5 C21.9999,12.225 21.7749,12 21.4999,12 C21.2249,12 20.9999,12.225 20.9999,12.5 C20.9999,12.775 21.2249,13 21.4999,13" id="Fill-12"></path>
            <path d="M20.4999,13 C20.2249,13 19.9999,13.225 19.9999,13.5 C19.9999,13.775 20.2249,14 20.4999,14 C20.7749,14 20.9999,13.775 20.9999,13.5 C20.9999,13.225 20.7749,13 20.4999,13" id="Fill-14"></path>
            <path d="M22.4999,12 C22.7749,12 22.9999,11.775 22.9999,11.5 C22.9999,11.225 22.7749,11 22.4999,11 C22.2249,11 21.9999,11.225 21.9999,11.5 C21.9999,11.775 22.2249,12 22.4999,12" id="Fill-16"></path>
            <path d="M23.4999,13 C23.7749,13 23.9999,12.775 23.9999,12.5 C23.9999,12.225 23.7749,12 23.4999,12 C23.2249,12 22.9999,12.225 22.9999,12.5 C22.9999,12.775 23.2249,13 23.4999,13" id="Fill-18"></path>
            <path d="M22.4999,13 C22.2249,13 21.9999,13.225 21.9999,13.5 C21.9999,13.775 22.2249,14 22.4999,14 C22.7749,14 22.9999,13.775 22.9999,13.5 C22.9999,13.225 22.7749,13 22.4999,13" id="Fill-20"></path>
            <path d="M24.4999,12 C24.7749,12 24.9999,11.775 24.9999,11.5 C24.9999,11.225 24.7749,11 24.4999,11 C24.2249,11 23.9999,11.225 23.9999,11.5 C23.9999,11.775 24.2249,12 24.4999,12" id="Fill-22"></path>
            <path d="M25.4999,13 C25.7749,13 25.9999,12.775 25.9999,12.5 C25.9999,12.225 25.7749,12 25.4999,12 C25.2249,12 24.9999,12.225 24.9999,12.5 C24.9999,12.775 25.2249,13 25.4999,13" id="Fill-24"></path>
            <path d="M24.4999,13 C24.2249,13 23.9999,13.225 23.9999,13.5 C23.9999,13.775 24.2249,14 24.4999,14 C24.7749,14 24.9999,13.775 24.9999,13.5 C24.9999,13.225 24.7749,13 24.4999,13" id="Fill-26"></path>
            <path d="M26.4999,12 C26.7749,12 26.9999,11.775 26.9999,11.5 C26.9999,11.225 26.7749,11 26.4999,11 C26.2249,11 25.9999,11.225 25.9999,11.5 C25.9999,11.775 26.2249,12 26.4999,12" id="Fill-28"></path>
            <path d="M27.4999,12 C27.2249,12 26.9999,12.225 26.9999,12.5 C26.9999,12.775 27.2249,13 27.4999,13 C27.7749,13 27.9999,12.775 27.9999,12.5 C27.9999,12.225 27.7749,12 27.4999,12" id="Fill-30"></path>
            <path d="M26.4999,13 C26.2249,13 25.9999,13.225 25.9999,13.5 C25.9999,13.775 26.2249,14 26.4999,14 C26.7749,14 26.9999,13.775 26.9999,13.5 C26.9999,13.225 26.7749,13 26.4999,13" id="Fill-32"></path>
            <path d="M28.4999,11 C28.2249,11 27.9999,11.225 27.9999,11.5 C27.9999,11.775 28.2249,12 28.4999,12 C28.7749,12 28.9999,11.775 28.9999,11.5 C28.9999,11.225 28.7749,11 28.4999,11" id="Fill-34"></path>
            <path d="M17.4999,13 C17.7749,13 17.9999,12.775 17.9999,12.5 C17.9999,12.225 17.7749,12 17.4999,12 C17.2249,12 16.9999,12.225 16.9999,12.5 C16.9999,12.775 17.2249,13 17.4999,13" id="Fill-36"></path>
            <path d="M19.4999,16 C19.2249,16 18.9999,16.225 18.9999,16.5 C18.9999,16.775 19.2249,17 19.4999,17 C19.7749,17 19.9999,16.775 19.9999,16.5 C19.9999,16.225 19.7749,16 19.4999,16" id="Fill-38"></path>
            <path d="M21.4999,16 C21.2249,16 20.9999,16.225 20.9999,16.5 C20.9999,16.775 21.2249,17 21.4999,17 C21.7749,17 21.9999,16.775 21.9999,16.5 C21.9999,16.225 21.7749,16 21.4999,16" id="Fill-40"></path>
            <path d="M23.4999,16 C23.2249,16 22.9999,16.225 22.9999,16.5 C22.9999,16.775 23.2249,17 23.4999,17 C23.7749,17 23.9999,16.775 23.9999,16.5 C23.9999,16.225 23.7749,16 23.4999,16" id="Fill-42"></path>
            <path d="M25.4999,16 C25.2249,16 24.9999,16.225 24.9999,16.5 C24.9999,16.775 25.2249,17 25.4999,17 C25.7749,17 25.9999,16.775 25.9999,16.5 C25.9999,16.225 25.7749,16 25.4999,16" id="Fill-44"></path>
            <path d="M27.4999,16 C27.2249,16 26.9999,16.225 26.9999,16.5 C26.9999,16.775 27.2249,17 27.4999,17 C27.7749,17 27.9999,16.775 27.9999,16.5 C27.9999,16.225 27.7749,16 27.4999,16" id="Fill-46"></path>
            <path d="M17.4999,17 C17.7749,17 17.9999,16.775 17.9999,16.5 C17.9999,16.225 17.7749,16 17.4999,16 C17.2249,16 16.9999,16.225 16.9999,16.5 C16.9999,16.775 17.2249,17 17.4999,17" id="Fill-48"></path>
            <path d="M28.4999,13 C28.2249,13 27.9999,13.225 27.9999,13.5 C27.9999,13.775 28.2249,14 28.4999,14 C28.7749,14 28.9999,13.775 28.9999,13.5 C28.9999,13.225 28.7749,13 28.4999,13" id="Fill-50"></path>
            <path d="M18.4999,17 C18.2249,17 17.9999,17.225 17.9999,17.5 C17.9999,17.775 18.2249,18 18.4999,18 C18.7749,18 18.9999,17.775 18.9999,17.5 C18.9999,17.225 18.7749,17 18.4999,17" id="Fill-52"></path>
            <path d="M20.4999,17 C20.2249,17 19.9999,17.225 19.9999,17.5 C19.9999,17.775 20.2249,18 20.4999,18 C20.7749,18 20.9999,17.775 20.9999,17.5 C20.9999,17.225 20.7749,17 20.4999,17" id="Fill-54"></path>
            <path d="M22.4999,17 C22.2249,17 21.9999,17.225 21.9999,17.5 C21.9999,17.775 22.2249,18 22.4999,18 C22.7749,18 22.9999,17.775 22.9999,17.5 C22.9999,17.225 22.7749,17 22.4999,17" id="Fill-56"></path>
            <path d="M24.4999,17 C24.2249,17 23.9999,17.225 23.9999,17.5 C23.9999,17.775 24.2249,18 24.4999,18 C24.7749,18 24.9999,17.775 24.9999,17.5 C24.9999,17.225 24.7749,17 24.4999,17" id="Fill-58"></path>
            <path d="M26.4999,17 C26.2249,17 25.9999,17.225 25.9999,17.5 C25.9999,17.775 26.2249,18 26.4999,18 C26.7749,18 26.9999,17.775 26.9999,17.5 C26.9999,17.225 26.7749,17 26.4999,17" id="Fill-60"></path>
            <path d="M28.4999,17 C28.2249,17 27.9999,17.225 27.9999,17.5 C27.9999,17.775 28.2249,18 28.4999,18 C28.7749,18 28.9999,17.775 28.9999,17.5 C28.9999,17.225 28.7749,17 28.4999,17" id="Fill-62"></path>
        </g>
    </g>
</svg>