<svg width="30px" height="30px" viewBox="0 0 30 30" version="1.1" xmlns="http://www.w3.org/2000/svg" xmlns:xlink="http://www.w3.org/1999/xlink">
    <g id="t_classic" stroke="none" stroke-width="1" fill="none" fill-rule="evenodd">
        <rect fill="#F7F3F0" x="0" y="0" width="30" height="30"></rect>
        <path d="M3.1259,9.1787 L3.8069,12.5807 L2.7809,12.8057 L2.1399,9.6007 L3.1259,9.1787 Z M8.2199,6.9997 L9.8619,6.9997 L11.5359,11.1857 C11.5919,11.3247 11.7079,11.4327 11.8519,11.4777 C11.8999,11.4917 11.9499,11.4997 11.9999,11.4997 C12.0979,11.4997 12.1939,11.4717 12.2769,11.4157 L14.9379,9.6427 L17.5989,11.4157 C17.6819,11.4717 17.7779,11.4997 17.8759,11.4997 C17.9239,11.4997 17.9729,11.4927 18.0199,11.4797 C18.1619,11.4367 18.2779,11.3317 18.3359,11.1957 L20.1179,6.9997 L21.7679,6.9997 C21.7759,7.0017 21.7849,7.0037 21.7949,7.0057 L25.9169,8.7697 L25.0219,12.3517 L22.2059,11.7597 C21.9119,11.6987 21.6039,11.7727 21.3699,11.9617 C21.1359,12.1517 20.9999,12.4367 20.9999,12.7387 L20.9999,25.9997 L8.9999,25.9997 L8.9999,12.6867 C8.9999,12.3837 8.8629,12.0977 8.6269,11.9077 C8.3899,11.7167 8.0809,11.6437 7.7859,11.7097 L4.7829,12.3667 L4.0649,8.7777 L8.2199,6.9997 Z M17.6959,4.4777 L19.1839,6.5777 C19.1889,6.5857 19.1959,6.5917 19.2019,6.5987 L17.6509,10.2487 L15.5209,8.8287 L17.6959,4.4777 Z M10.8319,6.5547 L12.1959,4.5087 L14.3549,8.8287 L12.2349,10.2417 L10.7829,6.6117 C10.7989,6.5917 10.8179,6.5757 10.8319,6.5547 Z M14.9379,7.7577 L13.0589,3.9997 L16.8159,3.9997 L14.9379,7.7577 Z M27.2179,12.8137 L26.0009,12.5577 L26.8489,9.1677 L27.8599,9.6007 L27.2179,12.8137 Z M1.0199,14.1967 C1.0719,14.4587 1.2289,14.6907 1.4529,14.8367 C1.6789,14.9847 1.9509,15.0327 2.2139,14.9767 L6.9999,13.9287 L6.9999,26.9997 C6.9999,27.5527 7.4469,27.9997 7.9999,27.9997 L21.9999,27.9997 C22.5529,27.9997 22.9999,27.5527 22.9999,26.9997 L22.9999,13.9707 L27.7939,14.9787 C28.0559,15.0327 28.3279,14.9807 28.5509,14.8347 C28.7729,14.6877 28.9289,14.4577 28.9799,14.1967 L29.9799,9.1967 C30.0729,8.7327 29.8279,8.2667 29.3939,8.0797 L22.4909,5.1287 C22.3459,5.0467 22.1789,4.9997 21.9999,4.9997 L20.5179,4.9997 L18.9869,2.8397 C18.9099,2.3637 18.4979,1.9997 17.9999,1.9997 L11.9999,1.9997 C11.6659,1.9997 11.3539,2.1667 11.1679,2.4457 L9.4649,4.9997 L7.9999,4.9997 C7.8409,4.9997 7.6899,5.0387 7.5569,5.1087 L0.6059,8.0797 C0.1719,8.2667 -0.0731,8.7327 0.0199,9.1967 L1.0199,14.1967 Z" id="Fill-1" fill="#000000"></path>
    </g>
</svg>