<svg width="30px" height="30px" viewBox="0 0 30 30" version="1.1" xmlns="http://www.w3.org/2000/svg" xmlns:xlink="http://www.w3.org/1999/xlink">
    <g id="t_print" stroke="none" stroke-width="1" fill="none" fill-rule="evenodd">
        <rect fill="#F7F3F0" x="0" y="0" width="30" height="30"></rect>
        <path d="M20.9998738,25 L8.99987383,25 L8.99987383,9.687 C8.99987383,9.462 8.90387383,9.26 8.76887383,9.086 L11.5778738,6.888 C12.4038738,7.865 13.6228738,8.5 14.9998738,8.5 C16.3748738,8.5 17.5938738,7.866 18.4198738,6.891 L21.2358738,9.131 C21.0978738,9.307 20.9998738,9.511 20.9998738,9.738 L20.9998738,25 Z M18.3458738,5 C17.9128738,6.442 16.5808738,7.5 14.9998738,7.5 C13.4188738,7.5 12.0868738,6.442 11.6538738,5 L18.3458738,5 Z M1.05187383,11.316 C1.21287383,11.802 1.71887383,12.083 2.21387383,11.977 L6.99987383,10.929 L6.99987383,26 C6.99987383,26.553 7.44687383,27 7.99987383,27 L21.9998738,27 C22.5528738,27 22.9998738,26.553 22.9998738,26 L22.9998738,10.971 L27.7938738,11.979 C28.2908738,12.083 28.7878738,11.799 28.9478738,11.316 L29.9478738,8.316 C30.1058738,7.844 29.8928738,7.328 29.4458738,7.105 L21.5368738,3.156 C21.3818738,3.058 21.1968738,3 20.9998738,3 L8.99987383,3 C8.82887383,3 8.66787383,3.045 8.52587383,3.124 L0.553873833,7.105 C0.106873833,7.328 -0.106126167,7.844 0.0518738333,8.316 L1.05187383,11.316 Z M15,16 C13.3431458,16 12,14.6568542 12,13 C12,11.3431458 13.3431458,10 15,10 C16.6568542,10 18,11.3431458 18,13 C18,14.6568542 16.6568542,16 15,16 Z M15,14 C15.5522847,14 16,13.5522847 16,13 C16,12.4477153 15.5522847,12 15,12 C14.4477153,12 14,12.4477153 14,13 C14,13.5522847 14.4477153,14 15,14 Z" id="Fill-1" fill="#000000"></path>
    </g>
</svg>