<svg width="30px" height="30px" viewBox="0 0 30 30" version="1.1" xmlns="http://www.w3.org/2000/svg" xmlns:xlink="http://www.w3.org/1999/xlink">
    <g id="t_white" stroke="none" stroke-width="1" fill="none" fill-rule="evenodd">
        <rect fill="#F7F3F0" x="0" y="0" width="30" height="30"></rect>
        <path d="M27.2179,10.8135 L22.2059,9.7595 C21.9119,9.6965 21.6039,9.7725 21.3699,9.9615 C21.1359,10.1515 20.9999,10.4365 20.9999,10.7385 L20.9999,25.0005 L8.9999,25.0005 L8.9999,10.6865 C8.9999,10.3835 8.8639,10.0975 8.6269,9.9075 C8.3899,9.7165 8.0809,9.6435 7.7859,9.7095 L2.7809,10.8055 L2.1479,7.6385 L9.1979,5.0005 L10.6209,5.0005 C11.0779,7.0005 12.8639,8.5005 14.9999,8.5005 C17.1369,8.5005 18.9219,7.0005 19.3789,5.0005 L20.8019,5.0005 L27.8529,7.6385 L27.2179,10.8135 Z M18.3369,5.0005 C17.9039,6.4405 16.5799,7.5005 14.9999,7.5005 C13.4199,7.5005 12.0969,6.4405 11.6629,5.0005 L18.3369,5.0005 Z M29.3509,6.0635 L21.4539,3.1085 C21.3179,3.0395 21.1629,3.0005 20.9999,3.0005 L8.9999,3.0005 C8.8529,3.0005 8.7119,3.0345 8.5859,3.0935 L0.6499,6.0635 C0.1909,6.2355 -0.0771,6.7145 0.0199,7.1965 L1.0199,12.1965 C1.0719,12.4595 1.2289,12.6905 1.4529,12.8365 C1.6789,12.9835 1.9509,13.0355 2.2139,12.9765 L6.9999,11.9285 L6.9999,26.0005 C6.9999,26.5525 7.4469,27.0005 7.9999,27.0005 L21.9999,27.0005 C22.5529,27.0005 22.9999,26.5525 22.9999,26.0005 L22.9999,11.9705 L27.7939,12.9785 C28.0559,13.0345 28.3279,12.9815 28.5509,12.8345 C28.7739,12.6875 28.9289,12.4585 28.9809,12.1965 L29.9809,7.1965 C30.0769,6.7145 29.8099,6.2355 29.3509,6.0635 Z" id="Fill-1" fill="#000000"></path>
    </g>
</svg>