<?xml version="1.0" encoding="UTF-8"?>
<svg width="30px" height="30px" viewBox="0 0 30 30" version="1.1" xmlns="http://www.w3.org/2000/svg" xmlns:xlink="http://www.w3.org/1999/xlink">
    <!-- Generator: Sketch 52.5 (67469) - http://www.bohemiancoding.com/sketch -->
    <title> trousers</title>
    <desc>Created with Sketch.</desc>
    <g id="-trousers" stroke="none" stroke-width="1" fill="none" fill-rule="evenodd">
        <rect fill="#F7F3F0" x="0" y="0" width="30" height="30"></rect>
        <path d="M13,3 L13,6.5 C13,7.363 13.439,8.125 14.106,8.574 C14.066,8.659 14.028,8.747 14.013,8.844 L11.146,27 L9.16,27 L10.997,9.553 C11.026,9.277 10.827,9.031 10.553,9.003 C10.27,8.973 10.032,9.173 10.003,9.447 L8.155,27 L7.08,27 L8.477,8.844 L10.929,4.757 C11.071,4.521 10.994,4.213 10.757,4.071 C10.523,3.929 10.214,4.006 10.071,4.243 L8.647,6.616 L8.926,3 L13,3 Z M21.353,6.616 L19.929,4.243 C19.786,4.006 19.478,3.929 19.243,4.071 C19.006,4.213 18.929,4.521 19.071,4.757 L21.523,8.844 L22.92,27 L21.845,27 L19.997,9.447 C19.967,9.173 19.734,8.974 19.447,9.003 C19.173,9.031 18.974,9.277 19.003,9.553 L20.84,27 L18.854,27 L15.987,8.844 C15.98,8.799 15.957,8.762 15.944,8.72 C15.978,8.652 16,8.58 16,8.5 L16,3 L21.074,3 L21.353,6.616 Z M14,3 L15,3 L15,7.914 C14.418,7.708 14,7.152 14,6.5 L14,3 Z M6,29 L12,29 C12.492,29 12.911,28.642 12.987,28.156 L15,15.412 L17.013,28.156 C17.089,28.642 17.508,29 18,29 L24,29 C24.278,29 24.545,28.884 24.733,28.68 C24.923,28.475 25.019,28.201 24.997,27.923 L22.997,1.923 C22.957,1.402 22.522,1 22,1 L8,1 C7.478,1 7.043,1.402 7.003,1.923 L5.003,27.923 C4.981,28.201 5.077,28.475 5.267,28.68 C5.455,28.884 5.722,29 6,29 Z" id="Fill-1" fill="#000000"></path>
    </g>
</svg>