<?xml version="1.0" encoding="UTF-8"?>
<svg width="30px" height="30px" viewBox="0 0 30 30" version="1.1" xmlns="http://www.w3.org/2000/svg" xmlns:xlink="http://www.w3.org/1999/xlink">
    <!-- Generator: Sketch 52.5 (67469) - http://www.bohemiancoding.com/sketch -->
    <title>underpants</title>
    <desc>Created with Sketch.</desc>
    <g id="underpants" stroke="none" stroke-width="1" fill="none" fill-rule="evenodd">
        <rect fill="#F7F3F0" x="0" y="0" width="30" height="30"></rect>
        <g id="Group-66" transform="translate(4.000000, 7.000000)" fill="#000000">
            <path d="M3.2051,8.8926 C3.2891,8.9556 3.3881,8.9996 3.5001,8.9996 C3.7761,8.9996 4.0001,8.7766 4.0001,8.4996 C4.0001,8.2236 3.7761,7.9996 3.5001,7.9996 C3.4671,7.9996 3.4381,8.0126 3.4071,8.0186 L3.6481,6.9696 C3.8511,6.9066 4.0001,6.7236 4.0001,6.4996 C4.0001,6.3566 3.9371,6.2296 3.8411,6.1376 L4.7961,1.9996 L5.5001,1.9996 L7.5001,1.9996 L9.0001,1.9996 L9.0001,5.4996 C9.0001,5.7446 9.0461,5.9756 9.1111,6.1986 C9.0461,6.2836 9.0001,6.3846 9.0001,6.4996 C9.0001,6.7766 9.2241,6.9996 9.5001,6.9996 C9.5041,6.9996 9.5071,6.9976 9.5111,6.9976 C9.6791,7.2206 9.8771,7.4196 10.1091,7.5766 C10.0851,7.6256 10.0541,7.6706 10.0381,7.7256 L9.8981,8.2126 C9.8081,8.0876 9.6671,7.9996 9.5001,7.9996 C9.2241,7.9996 9.0001,8.2236 9.0001,8.4996 C9.0001,8.7766 9.2241,8.9996 9.5001,8.9996 C9.5651,8.9996 9.6271,8.9856 9.6841,8.9626 L9.3811,10.0246 C9.1641,10.0786 9.0001,10.2656 9.0001,10.4996 C9.0001,10.6366 9.0561,10.7606 9.1441,10.8516 L8.2731,13.9016 L2.2241,13.1456 L3.2051,8.8926 Z M14.5001,1.9996 L16.5001,1.9996 L17.2041,1.9996 L18.1591,6.1376 C18.0621,6.2296 18.0001,6.3566 18.0001,6.4996 C18.0001,6.7236 18.1491,6.9066 18.3511,6.9696 L18.5931,8.0186 C18.5611,8.0126 18.5331,7.9996 18.5001,7.9996 C18.2241,7.9996 18.0001,8.2236 18.0001,8.4996 C18.0001,8.7766 18.2241,8.9996 18.5001,8.9996 C18.6121,8.9996 18.7111,8.9556 18.7951,8.8926 L19.7761,13.1456 L13.7261,13.9016 L12.8551,10.8516 C12.9441,10.7606 13.0001,10.6366 13.0001,10.4996 C13.0001,10.2656 12.8361,10.0786 12.6191,10.0246 L12.3151,8.9626 C12.3731,8.9856 12.4341,8.9996 12.5001,8.9996 C12.7761,8.9996 13.0001,8.7766 13.0001,8.4996 C13.0001,8.2236 12.7761,7.9996 12.5001,7.9996 C12.3331,7.9996 12.1921,8.0876 12.1011,8.2136 L11.9621,7.7256 C11.9601,7.7186 11.9551,7.7126 11.9531,7.7056 C11.9811,7.6436 12.0001,7.5746 12.0001,7.4996 L12.0001,6.4996 L12.0001,4.4996 L12.0001,2.4996 L12.0001,1.9996 L12.5001,1.9996 L14.5001,1.9996 Z M10.0001,1.9996 L11.0001,1.9996 L11.0001,6.9136 C10.4181,6.7076 10.0001,6.1526 10.0001,5.4996 L10.0001,1.9996 Z M0.8761,14.9926 L8.8761,15.9926 C9.3681,16.0506 9.8261,15.7476 9.9621,15.2746 L11.0001,11.6396 L12.0381,15.2746 C12.1621,15.7076 12.5591,15.9996 12.9991,15.9996 C13.0401,15.9996 13.0821,15.9966 13.1241,15.9926 L21.1241,14.9926 C21.4051,14.9566 21.6571,14.8046 21.8191,14.5726 C21.9811,14.3406 22.0381,14.0506 21.9751,13.7756 L18.9751,0.7756 C18.8701,0.3216 18.4661,-0.0004 18.0001,-0.0004 L4.0001,-0.0004 C3.5341,-0.0004 3.1301,0.3216 3.0251,0.7756 L0.0251,13.7756 C-0.0379,14.0506 0.0181,14.3406 0.1811,14.5726 C0.3431,14.8046 0.5951,14.9566 0.8761,14.9926 Z" id="Fill-1"></path>
            <path d="M5.5,4 C5.224,4 5,4.224 5,4.5 C5,4.776 5.224,5 5.5,5 C5.776,5 6,4.776 6,4.5 C6,4.224 5.776,4 5.5,4" id="Fill-4"></path>
            <path d="M7.5,4 C7.224,4 7,4.224 7,4.5 C7,4.776 7.224,5 7.5,5 C7.776,5 8,4.776 8,4.5 C8,4.224 7.776,4 7.5,4" id="Fill-6"></path>
            <path d="M5.5,6 C5.224,6 5,6.224 5,6.5 C5,6.776 5.224,7 5.5,7 C5.776,7 6,6.776 6,6.5 C6,6.224 5.776,6 5.5,6" id="Fill-8"></path>
            <path d="M7.5,6 C7.224,6 7,6.224 7,6.5 C7,6.776 7.224,7 7.5,7 C7.776,7 8,6.776 8,6.5 C8,6.224 7.776,6 7.5,6" id="Fill-10"></path>
            <path d="M5.5,8 C5.224,8 5,8.224 5,8.5 C5,8.776 5.224,9 5.5,9 C5.776,9 6,8.776 6,8.5 C6,8.224 5.776,8 5.5,8" id="Fill-12"></path>
            <path d="M7.5,8 C7.224,8 7,8.224 7,8.5 C7,8.776 7.224,9 7.5,9 C7.776,9 8,8.776 8,8.5 C8,8.224 7.776,8 7.5,8" id="Fill-14"></path>
            <path d="M5.5,10 C5.224,10 5,10.224 5,10.5 C5,10.776 5.224,11 5.5,11 C5.776,11 6,10.776 6,10.5 C6,10.224 5.776,10 5.5,10" id="Fill-16"></path>
            <path d="M3.5,10 C3.224,10 3,10.224 3,10.5 C3,10.776 3.224,11 3.5,11 C3.776,11 4,10.776 4,10.5 C4,10.224 3.776,10 3.5,10" id="Fill-18"></path>
            <path d="M7.5,10 C7.224,10 7,10.224 7,10.5 C7,10.776 7.224,11 7.5,11 C7.776,11 8,10.776 8,10.5 C8,10.224 7.776,10 7.5,10" id="Fill-20"></path>
            <path d="M5.5,12 C5.224,12 5,12.224 5,12.5 C5,12.776 5.224,13 5.5,13 C5.776,13 6,12.776 6,12.5 C6,12.224 5.776,12 5.5,12" id="Fill-22"></path>
            <path d="M3.5,12 C3.224,12 3,12.224 3,12.5 C3,12.776 3.224,13 3.5,13 C3.776,13 4,12.776 4,12.5 C4,12.224 3.776,12 3.5,12" id="Fill-24"></path>
            <path d="M7.5,12 C7.224,12 7,12.224 7,12.5 C7,12.776 7.224,13 7.5,13 C7.776,13 8,12.776 8,12.5 C8,12.224 7.776,12 7.5,12" id="Fill-26"></path>
            <path d="M5,2.5 C5,2.776 5.224,3 5.5,3 C5.776,3 6,2.776 6,2.5 C6,2.224 5.776,2 5.5,2 C5.224,2 5,2.224 5,2.5" id="Fill-28"></path>
            <path d="M7,2.5 C7,2.776 7.224,3 7.5,3 C7.776,3 8,2.776 8,2.5 C8,2.224 7.776,2 7.5,2 C7.224,2 7,2.224 7,2.5" id="Fill-30"></path>
            <path d="M16.5,5 C16.776,5 17,4.776 17,4.5 C17,4.224 16.776,4 16.5,4 C16.224,4 16,4.224 16,4.5 C16,4.776 16.224,5 16.5,5" id="Fill-32"></path>
            <path d="M14.5,5 C14.776,5 15,4.776 15,4.5 C15,4.224 14.776,4 14.5,4 C14.224,4 14,4.224 14,4.5 C14,4.776 14.224,5 14.5,5" id="Fill-34"></path>
            <path d="M12.5,5 C12.776,5 13,4.776 13,4.5 C13,4.224 12.776,4 12.5,4 C12.224,4 12,4.224 12,4.5 C12,4.776 12.224,5 12.5,5" id="Fill-36"></path>
            <path d="M12,2.5 C12,2.776 12.224,3 12.5,3 C12.776,3 13,2.776 13,2.5 C13,2.224 12.776,2 12.5,2 C12.224,2 12,2.224 12,2.5" id="Fill-38"></path>
            <path d="M16.5,7 C16.776,7 17,6.776 17,6.5 C17,6.224 16.776,6 16.5,6 C16.224,6 16,6.224 16,6.5 C16,6.776 16.224,7 16.5,7" id="Fill-40"></path>
            <path d="M14.5,7 C14.776,7 15,6.776 15,6.5 C15,6.224 14.776,6 14.5,6 C14.224,6 14,6.224 14,6.5 C14,6.776 14.224,7 14.5,7" id="Fill-42"></path>
            <path d="M16.5,9 C16.776,9 17,8.776 17,8.5 C17,8.224 16.776,8 16.5,8 C16.224,8 16,8.224 16,8.5 C16,8.776 16.224,9 16.5,9" id="Fill-44"></path>
            <path d="M14.5,9 C14.776,9 15,8.776 15,8.5 C15,8.224 14.776,8 14.5,8 C14.224,8 14,8.224 14,8.5 C14,8.776 14.224,9 14.5,9" id="Fill-46"></path>
            <path d="M16.5,11 C16.776,11 17,10.776 17,10.5 C17,10.224 16.776,10 16.5,10 C16.224,10 16,10.224 16,10.5 C16,10.776 16.224,11 16.5,11" id="Fill-48"></path>
            <path d="M18.5,11 C18.776,11 19,10.776 19,10.5 C19,10.224 18.776,10 18.5,10 C18.224,10 18,10.224 18,10.5 C18,10.776 18.224,11 18.5,11" id="Fill-50"></path>
            <path d="M14.5,11 C14.776,11 15,10.776 15,10.5 C15,10.224 14.776,10 14.5,10 C14.224,10 14,10.224 14,10.5 C14,10.776 14.224,11 14.5,11" id="Fill-52"></path>
            <path d="M16.5,13 C16.776,13 17,12.776 17,12.5 C17,12.224 16.776,12 16.5,12 C16.224,12 16,12.224 16,12.5 C16,12.776 16.224,13 16.5,13" id="Fill-54"></path>
            <path d="M18.5,13 C18.776,13 19,12.776 19,12.5 C19,12.224 18.776,12 18.5,12 C18.224,12 18,12.224 18,12.5 C18,12.776 18.224,13 18.5,13" id="Fill-56"></path>
            <path d="M14.5,13 C14.776,13 15,12.776 15,12.5 C15,12.224 14.776,12 14.5,12 C14.224,12 14,12.224 14,12.5 C14,12.776 14.224,13 14.5,13" id="Fill-58"></path>
            <path d="M16,2.5 C16,2.776 16.224,3 16.5,3 C16.776,3 17,2.776 17,2.5 C17,2.224 16.776,2 16.5,2 C16.224,2 16,2.224 16,2.5" id="Fill-60"></path>
            <path d="M14,2.5 C14,2.776 14.224,3 14.5,3 C14.776,3 15,2.776 15,2.5 C15,2.224 14.776,2 14.5,2 C14.224,2 14,2.224 14,2.5" id="Fill-62"></path>
            <path d="M12.5,7 C12.776,7 13,6.776 13,6.5 C13,6.224 12.776,6 12.5,6 C12.224,6 12,6.224 12,6.5 C12,6.776 12.224,7 12.5,7" id="Fill-64"></path>
        </g>
    </g>
</svg>